<svg xmlns="http://www.w3.org/2000/svg" width="70.6923021056947" height="340.2307681021605" data-name="Atoms/Brand/Finger Outline" style=""><rect id="backgroundrect" width="100%" height="100%" x="0" y="0" fill="none" stroke="none" class="" style=""/>
    <defs>
        <style>
            .cls-1,.cls-2,.cls-4{fill:none}.cls-1,.cls-2{stroke:#861723;stroke-miterlimit:10}.cls-2{stroke-linecap:square}.cls-3{stroke:none}
        </style>
    </defs>
    
    
<g class="currentLayer" style=""><title>Layer 1</title><g id="Group" class="" transform="rotate(90.01731872558594 34.653854370117166,169.15385437011722) ">
        <g id="Rectangle_1" class="cls-1" data-name="Rectangle 1">
            <path d="M-127.84613919258118,142.15384662151337 h325 v54 H-127.84613919258118 z" class="cls-3" id="svg_1"/>
            <path d="M-127.34613919258118,142.65384662151337 h324 v53 H-127.34613919258118 z" class="cls-4" id="svg_2"/>
        </g>
        <g id="Rectangle_1-2" class="cls-1" data-name="Rectangle 1">
            <path d="M-120.84613919258118,149.15384662151337 h311 v40 H-120.84613919258118 z" class="cls-3" id="svg_3"/>
            <path d="M-120.34613919258118,149.65384662151337 h310 v39 H-120.34613919258118 z" class="cls-4" id="svg_4"/>
        </g>
        <path id="Line_3" d="M-126.84613919258118,143.15384662151337 l6.5,6.5 " class="cls-2" data-name="Line 3"/>
        <path id="Line_3_Copy" d="M-126.84613919258118,195.15384662151337 l6.5,-6.5 " class="cls-2" data-name="Line 3 Copy"/>
        <path id="Line_3_Copy_2" d="M196.15386080741882,143.15384662151337 l-6.5,6.5 " class="cls-2" data-name="Line 3 Copy 2"/>
        <path id="Line_3_Copy_3" d="M-127.84613919258118,142.15384662151337 l6.441,6.441 " class="cls-2" data-name="Line 3 Copy 3" transform="rotate(-180 34.153884887695305,168.65383911132812) "/>
    </g><g id="Rectangle_1-3" class="cls-1" data-name="Rectangle 1" transform="rotate(90.01657104492188 34.65384674072265,169.92306518554688) ">
        <path d="M-133.84614092111588,136.9230798482895 h337 v66 H-133.84614092111588 z" class="cls-3" id="svg_5"/>
        <path d="M-133.34614092111588,137.4230798482895 h336 v65 H-133.34614092111588 z" class="cls-4" id="svg_6"/>
    </g></g></svg>