<?xml version="1.0" encoding="utf-8"?>
<!-- Generator: Adobe Illustrator 23.0.1, SVG Export Plug-In . SVG Version: 6.00 Build 0)  -->
<svg version="1.1" id="Layer_1" xmlns="http://www.w3.org/2000/svg" xmlns:xlink="http://www.w3.org/1999/xlink" x="0px" y="0px"
	 viewBox="0 0 108 50" style="enable-background:new 0 0 108 50;" xml:space="preserve">
<style type="text/css">
	.st0{fill:none;stroke:#C40018;stroke-width:2;stroke-miterlimit:10;}
</style>
<g id="Group_19_Copy_2">
	<path id="Rectangle_Copy_15" class="st0" d="M51,1v8H3V1H51z"/>
	<path id="Rectangle_Copy_50" class="st0" d="M51,9v8H3V9H51z"/>
	<path id="Rectangle_Copy_51" class="st0" d="M51,17v8H3v-8H51z"/>
	<path id="Rectangle_Copy_52" class="st0" d="M51,25v8H3v-8H51z"/>
	<path id="Rectangle_Copy_53" class="st0" d="M51,33v8H3v-8H51z"/>
	<path id="Rectangle_Copy_54" class="st0" d="M51,41v8H3v-8H51z"/>
</g>
<g id="Group_19_Copy_3" transform="translate(58)">
	<path id="Rectangle_Copy_15-2" class="st0" d="M47,1v8H-1V1H47z"/>
	<path id="Rectangle_Copy_50-2" class="st0" d="M47,9v8H-1V9H47z"/>
	<path id="Rectangle_Copy_51-2" class="st0" d="M47,17v8H-1v-8H47z"/>
	<path id="Rectangle_Copy_52-2" class="st0" d="M47,25v8H-1v-8H47z"/>
	<path id="Rectangle_Copy_53-2" class="st0" d="M47,33v8H-1v-8H47z"/>
	<path id="Rectangle_Copy_54-2" class="st0" d="M47,41v8H-1v-8H47z"/>
</g>
</svg>
