<svg xmlns="http://www.w3.org/2000/svg" id="Group" width="187" height="264" viewBox="0 0 187 264">
    <defs>
        <style>
            .cls-1,.cls-4,.cls-5{fill:none}.cls-2{clip-path:url(#clip-path)}.cls-3{fill:rgba(0,0,0,0)}.cls-4,.cls-5{stroke:#861723;stroke-miterlimit:10}.cls-5{stroke-linecap:square}.cls-6{stroke:none}
        </style>
        <clipPath id="clip-path">
            <path id="Mask" d="M0 0h187v264H0z" class="cls-1"/>
        </clipPath>
    </defs>
    <path id="Mask-2" d="M0 0h187v264H0z" class="cls-1" data-name="Mask"/>
    <g id="Group-2" class="cls-2" data-name="Group">
        <g id="Group-3" data-name="Group" transform="rotate(7 245.479 -2426.08)">
            <g id="Atoms_Brand_Finger_Outline" data-name="Atoms/Brand/Finger Outline" transform="rotate(124 -.407 303.541)">
                <path id="Atoms_Brand_Finger_Outline_background" d="M0 0h231.558v45.315H0z" class="cls-3" data-name="Atoms/Brand/Finger Outline background"/>
                <g id="Group-4" data-name="Group" transform="translate(4.123 4.12)">
                    <g id="Rectangle_1" class="cls-4" data-name="Rectangle 1">
                        <path d="M0 0h223.313v37.076H0z" class="cls-6"/>
                        <path d="M.5.5h222.313v36.076H.5z" class="cls-1"/>
                    </g>
                    <g id="Rectangle_1-2" class="cls-4" data-name="Rectangle 1">
                        <path d="M0 0h213.693v27.464H0z" class="cls-6" transform="translate(4.81 4.806)"/>
                        <path d="M.5.5h212.693v26.464H.5z" class="cls-1" transform="translate(4.81 4.806)"/>
                    </g>
                    <path id="Line_3" d="M1 0l4.466 4.463" class="cls-5" data-name="Line 3" transform="translate(-.313 .687)"/>
                    <path id="Line_3_Copy" d="M1-2.037L5.466-6.5" class="cls-5" data-name="Line 3 Copy" transform="translate(-.313 38.427)"/>
                    <path id="Line_3_Copy_2" d="M-2.034 0L-6.5 4.463" class="cls-5" data-name="Line 3 Copy 2" transform="translate(224.66 .687)"/>
                    <path id="Line_3_Copy_3" d="M0 0l4.426 4.422" class="cls-5" data-name="Line 3 Copy 3" transform="rotate(-180 111.313 18.195)"/>
                </g>
                <g id="Rectangle_1-3" class="cls-4" data-name="Rectangle 1">
                    <path d="M0 0h231.558v45.315H0z" class="cls-6"/>
                    <path d="M.5.5h230.558v44.315H.5z" class="cls-1"/>
                </g>
            </g>
            <g id="Atoms_Brand_Finger_Outline-2" data-name="Atoms/Brand/Finger Outline" transform="rotate(124 164.006 183.91)">
                <path id="Atoms_Brand_Finger_Outline_background-2" d="M0 0h231.558v45.315H0z" class="cls-3" data-name="Atoms/Brand/Finger Outline background"/>
                <g id="Group-5" data-name="Group" transform="translate(4.123 4.12)">
                    <g id="Rectangle_1-4" class="cls-4" data-name="Rectangle 1">
                        <path d="M0 0h223.313v37.076H0z" class="cls-6"/>
                        <path d="M.5.5h222.313v36.076H.5z" class="cls-1"/>
                    </g>
                    <g id="Rectangle_1-5" class="cls-4" data-name="Rectangle 1">
                        <path d="M0 0h213.693v27.464H0z" class="cls-6" transform="translate(4.81 4.806)"/>
                        <path d="M.5.5h212.693v26.464H.5z" class="cls-1" transform="translate(4.81 4.806)"/>
                    </g>
                    <path id="Line_3-2" d="M1 0l4.466 4.463" class="cls-5" data-name="Line 3" transform="translate(-.313 .687)"/>
                    <path id="Line_3_Copy-2" d="M1-2.037L5.466-6.5" class="cls-5" data-name="Line 3 Copy" transform="translate(-.313 38.427)"/>
                    <path id="Line_3_Copy_2-2" d="M-2.034 0L-6.5 4.463" class="cls-5" data-name="Line 3 Copy 2" transform="translate(224.66 .687)"/>
                    <path id="Line_3_Copy_3-2" d="M0 0l4.426 4.422" class="cls-5" data-name="Line 3 Copy 3" transform="rotate(-180 111.313 18.195)"/>
                </g>
                <g id="Rectangle_1-6" class="cls-4" data-name="Rectangle 1">
                    <path d="M0 0h231.558v45.315H0z" class="cls-6"/>
                    <path d="M.5.5h230.558v44.315H.5z" class="cls-1"/>
                </g>
            </g>
            <g id="Atoms_Brand_Finger_Outline-3" data-name="Atoms/Brand/Finger Outline" transform="rotate(124 45.517 246.857)">
                <path id="Atoms_Brand_Finger_Outline_background-3" d="M0 0h231.558v45.315H0z" class="cls-3" data-name="Atoms/Brand/Finger Outline background"/>
                <g id="Group-6" data-name="Group" transform="translate(4.123 4.12)">
                    <g id="Rectangle_1-7" class="cls-4" data-name="Rectangle 1">
                        <path d="M0 0h223.313v37.076H0z" class="cls-6"/>
                        <path d="M.5.5h222.313v36.076H.5z" class="cls-1"/>
                    </g>
                    <g id="Rectangle_1-8" class="cls-4" data-name="Rectangle 1">
                        <path d="M0 0h213.693v27.464H0z" class="cls-6" transform="translate(4.81 4.806)"/>
                        <path d="M.5.5h212.693v26.464H.5z" class="cls-1" transform="translate(4.81 4.806)"/>
                    </g>
                    <path id="Line_3-3" d="M1 0l4.466 4.463" class="cls-5" data-name="Line 3" transform="translate(-.313 .687)"/>
                    <path id="Line_3_Copy-3" d="M1-2.037L5.466-6.5" class="cls-5" data-name="Line 3 Copy" transform="translate(-.313 38.427)"/>
                    <path id="Line_3_Copy_2-3" d="M-2.034 0L-6.5 4.463" class="cls-5" data-name="Line 3 Copy 2" transform="translate(224.66 .687)"/>
                    <path id="Line_3_Copy_3-3" d="M0 0l4.426 4.422" class="cls-5" data-name="Line 3 Copy 3" transform="rotate(-180 111.313 18.195)"/>
                </g>
                <g id="Rectangle_1-9" class="cls-4" data-name="Rectangle 1">
                    <path d="M0 0h231.558v45.315H0z" class="cls-6"/>
                    <path d="M.5.5h230.558v44.315H.5z" class="cls-1"/>
                </g>
            </g>
            <g id="Atoms_Brand_Finger_Outline-4" data-name="Atoms/Brand/Finger Outline" transform="rotate(124 91.159 190.177)">
                <path id="Atoms_Brand_Finger_Outline_background-4" d="M0 0h231.558v45.315H0z" class="cls-3" data-name="Atoms/Brand/Finger Outline background"/>
                <g id="Group-7" data-name="Group" transform="translate(4.123 4.12)">
                    <g id="Rectangle_1-10" class="cls-4" data-name="Rectangle 1">
                        <path d="M0 0h223.313v37.076H0z" class="cls-6"/>
                        <path d="M.5.5h222.313v36.076H.5z" class="cls-1"/>
                    </g>
                    <g id="Rectangle_1-11" class="cls-4" data-name="Rectangle 1">
                        <path d="M0 0h213.693v27.464H0z" class="cls-6" transform="translate(4.81 4.806)"/>
                        <path d="M.5.5h212.693v26.464H.5z" class="cls-1" transform="translate(4.81 4.806)"/>
                    </g>
                    <path id="Line_3-4" d="M1 0l4.466 4.463" class="cls-5" data-name="Line 3" transform="translate(-.313 .687)"/>
                    <path id="Line_3_Copy-4" d="M1-2.037L5.466-6.5" class="cls-5" data-name="Line 3 Copy" transform="translate(-.313 38.427)"/>
                    <path id="Line_3_Copy_2-4" d="M-2.034 0L-6.5 4.463" class="cls-5" data-name="Line 3 Copy 2" transform="translate(224.66 .687)"/>
                    <path id="Line_3_Copy_3-4" d="M0 0l4.426 4.422" class="cls-5" data-name="Line 3 Copy 3" transform="rotate(-180 111.313 18.195)"/>
                </g>
                <g id="Rectangle_1-12" class="cls-4" data-name="Rectangle 1">
                    <path d="M0 0h231.558v45.315H0z" class="cls-6"/>
                    <path d="M.5.5h230.558v44.315H.5z" class="cls-1"/>
                </g>
            </g>
            <g id="Atoms_Brand_Finger_Outline-5" data-name="Atoms/Brand/Finger Outline" transform="rotate(124 -26.827 252.944)">
                <path id="Atoms_Brand_Finger_Outline_background-5" d="M0 0h231.558v45.315H0z" class="cls-3" data-name="Atoms/Brand/Finger Outline background"/>
                <g id="Group-8" data-name="Group" transform="translate(4.123 4.12)">
                    <g id="Rectangle_1-13" class="cls-4" data-name="Rectangle 1">
                        <path d="M0 0h223.313v37.076H0z" class="cls-6"/>
                        <path d="M.5.5h222.313v36.076H.5z" class="cls-1"/>
                    </g>
                    <g id="Rectangle_1-14" class="cls-4" data-name="Rectangle 1">
                        <path d="M0 0h213.693v27.464H0z" class="cls-6" transform="translate(4.81 4.806)"/>
                        <path d="M.5.5h212.693v26.464H.5z" class="cls-1" transform="translate(4.81 4.806)"/>
                    </g>
                    <path id="Line_3-5" d="M1 0l4.466 4.463" class="cls-5" data-name="Line 3" transform="translate(-.313 .687)"/>
                    <path id="Line_3_Copy-5" d="M1-2.037L5.466-6.5" class="cls-5" data-name="Line 3 Copy" transform="translate(-.313 38.427)"/>
                    <path id="Line_3_Copy_2-5" d="M-2.034 0L-6.5 4.463" class="cls-5" data-name="Line 3 Copy 2" transform="translate(224.66 .687)"/>
                    <path id="Line_3_Copy_3-5" d="M0 0l4.426 4.422" class="cls-5" data-name="Line 3 Copy 3" transform="rotate(-180 111.313 18.195)"/>
                </g>
                <g id="Rectangle_1-15" class="cls-4" data-name="Rectangle 1">
                    <path d="M0 0h231.558v45.315H0z" class="cls-6"/>
                    <path d="M.5.5h230.558v44.315H.5z" class="cls-1"/>
                </g>
            </g>
            <g id="Atoms_Brand_Finger_Outline-6" data-name="Atoms/Brand/Finger Outline" transform="rotate(124 209.393 127.64)">
                <path id="Atoms_Brand_Finger_Outline_background-6" d="M0 0h231.558v45.315H0z" class="cls-3" data-name="Atoms/Brand/Finger Outline background"/>
                <g id="Group-9" data-name="Group" transform="translate(4.123 4.12)">
                    <g id="Rectangle_1-16" class="cls-4" data-name="Rectangle 1">
                        <path d="M0 0h223.313v37.076H0z" class="cls-6"/>
                        <path d="M.5.5h222.313v36.076H.5z" class="cls-1"/>
                    </g>
                    <g id="Rectangle_1-17" class="cls-4" data-name="Rectangle 1">
                        <path d="M0 0h213.693v27.464H0z" class="cls-6" transform="translate(4.81 4.806)"/>
                        <path d="M.5.5h212.693v26.464H.5z" class="cls-1" transform="translate(4.81 4.806)"/>
                    </g>
                    <path id="Line_3-6" d="M1 0l4.466 4.463" class="cls-5" data-name="Line 3" transform="translate(-.313 .687)"/>
                    <path id="Line_3_Copy-6" d="M1-2.037L5.466-6.5" class="cls-5" data-name="Line 3 Copy" transform="translate(-.313 38.427)"/>
                    <path id="Line_3_Copy_2-6" d="M-2.034 0L-6.5 4.463" class="cls-5" data-name="Line 3 Copy 2" transform="translate(224.66 .687)"/>
                    <path id="Line_3_Copy_3-6" d="M0 0l4.426 4.422" class="cls-5" data-name="Line 3 Copy 3" transform="rotate(-180 111.313 18.195)"/>
                </g>
                <g id="Rectangle_1-18" class="cls-4" data-name="Rectangle 1">
                    <path d="M0 0h231.558v45.315H0z" class="cls-6"/>
                    <path d="M.5.5h230.558v44.315H.5z" class="cls-1"/>
                </g>
            </g>
            <g id="Atoms_Brand_Finger_Outline-7" data-name="Atoms/Brand/Finger Outline" transform="rotate(124 137.324 133.771)">
                <path id="Atoms_Brand_Finger_Outline_background-7" d="M0 0h231.558v45.315H0z" class="cls-3" data-name="Atoms/Brand/Finger Outline background"/>
                <g id="Group-10" data-name="Group" transform="translate(4.123 4.12)">
                    <g id="Rectangle_1-19" class="cls-4" data-name="Rectangle 1">
                        <path d="M0 0h223.313v37.076H0z" class="cls-6"/>
                        <path d="M.5.5h222.313v36.076H.5z" class="cls-1"/>
                    </g>
                    <g id="Rectangle_1-20" class="cls-4" data-name="Rectangle 1">
                        <path d="M0 0h213.693v27.464H0z" class="cls-6" transform="translate(4.81 4.806)"/>
                        <path d="M.5.5h212.693v26.464H.5z" class="cls-1" transform="translate(4.81 4.806)"/>
                    </g>
                    <path id="Line_3-7" d="M1 0l4.466 4.463" class="cls-5" data-name="Line 3" transform="translate(-.313 .687)"/>
                    <path id="Line_3_Copy-7" d="M1-2.037L5.466-6.5" class="cls-5" data-name="Line 3 Copy" transform="translate(-.313 38.427)"/>
                    <path id="Line_3_Copy_2-7" d="M-2.034 0L-6.5 4.463" class="cls-5" data-name="Line 3 Copy 2" transform="translate(224.66 .687)"/>
                    <path id="Line_3_Copy_3-7" d="M0 0l4.426 4.422" class="cls-5" data-name="Line 3 Copy 3" transform="rotate(-180 111.313 18.195)"/>
                </g>
                <g id="Rectangle_1-21" class="cls-4" data-name="Rectangle 1">
                    <path d="M0 0h231.558v45.315H0z" class="cls-6"/>
                    <path d="M.5.5h230.558v44.315H.5z" class="cls-1"/>
                </g>
            </g>
            <g id="Atoms_Brand_Finger_Outline-8" data-name="Atoms/Brand/Finger Outline" transform="rotate(124 18.836 196.719)">
                <path id="Atoms_Brand_Finger_Outline_background-8" d="M0 0h231.558v45.315H0z" class="cls-3" data-name="Atoms/Brand/Finger Outline background"/>
                <g id="Group-11" data-name="Group" transform="translate(4.123 4.12)">
                    <g id="Rectangle_1-22" class="cls-4" data-name="Rectangle 1">
                        <path d="M0 0h223.313v37.076H0z" class="cls-6"/>
                        <path d="M.5.5h222.313v36.076H.5z" class="cls-1"/>
                    </g>
                    <g id="Rectangle_1-23" class="cls-4" data-name="Rectangle 1">
                        <path d="M0 0h213.693v27.464H0z" class="cls-6" transform="translate(4.81 4.806)"/>
                        <path d="M.5.5h212.693v26.464H.5z" class="cls-1" transform="translate(4.81 4.806)"/>
                    </g>
                    <path id="Line_3-8" d="M1 0l4.466 4.463" class="cls-5" data-name="Line 3" transform="translate(-.313 .687)"/>
                    <path id="Line_3_Copy-8" d="M1-2.037L5.466-6.5" class="cls-5" data-name="Line 3 Copy" transform="translate(-.313 38.427)"/>
                    <path id="Line_3_Copy_2-8" d="M-2.034 0L-6.5 4.463" class="cls-5" data-name="Line 3 Copy 2" transform="translate(224.66 .687)"/>
                    <path id="Line_3_Copy_3-8" d="M0 0l4.426 4.422" class="cls-5" data-name="Line 3 Copy 3" transform="rotate(-180 111.313 18.195)"/>
                </g>
                <g id="Rectangle_1-24" class="cls-4" data-name="Rectangle 1">
                    <path d="M0 0h231.558v45.315H0z" class="cls-6"/>
                    <path d="M.5.5h230.558v44.315H.5z" class="cls-1"/>
                </g>
            </g>
        </g>
    </g>
</svg>
