<svg xmlns="http://www.w3.org/2000/svg" id="Atoms_Brand_Logo" width="161.6" height="78.712" data-name="Atoms/Brand/Logo" viewBox="0 0 80.8 39.356">
    <defs>
        <style>
            .cls-1{fill:#fff}
        </style>
    </defs>
    <g id="Logo">
        <path id="Shape" d="M1.066 2.167A1.065 1.065 0 0 1 0 1.1 1.083 1.083 0 0 1 1.064 0h.02a1.053 1.053 0 0 1 .744.305 1.067 1.067 0 0 1 .319.759 1.087 1.087 0 0 1-1.054 1.1zm0-.215l.028.039a.92.92 0 0 0 .859-.967.912.912 0 0 0-.908-.887h-.02a.907.907 0 0 0 .019 1.815h.02z" class="cls-1" transform="translate(78.653 32.41)"/>
        <path id="Shape-2" d="M.19 1.29H0V0h.521C.8 0 .91.091.91.313a.276.276 0 0 1-.035.309.291.291 0 0 1-.223.1A.3.3 0 0 1 .57.713l.339.574H.7L.41.723H.19v.566zm0-1.075v.264l.3.04C.63.518.73.507.73.362S.66.215.49.215h-.3z" class="cls-1" data-name="Shape" transform="translate(79.317 32.858)"/>
        <path id="Shape-3" d="M19.4.088V0H0v.576h19.512A2.093 2.093 0 0 0 19.4.088z" class="cls-1" data-name="Shape" transform="translate(0 16.185)"/>
        <path id="Shape-4" d="M.654 0L0 .576h24.966V0z" class="cls-1" data-name="Shape" transform="translate(52.654 16.195)"/>
        <path id="Shape-5" d="M71.5 20.322a1.834 1.834 0 0 1-1.511-.59 1.233 1.233 0 0 1-.167-1.118 1.174 1.174 0 0 1 1.112-.976.48.48 0 0 1 .05 0 .58.58 0 0 1 .5.274c-.427.724-.39 1.1-.283 1.288a.6.6 0 0 0 .526.264c.729 0 1.714-.922 2.186-2.683l.78-2.927a4.868 4.868 0 0 1-3.044 1.727c-.5 0-.761-.4-.761-1.171a3.672 3.672 0 0 1-2.5 1.161h-.064a1.609 1.609 0 0 1-1.536-2.089 8.962 8.962 0 0 1 .827-1.8l.007-.013v-.007a3.057 3.057 0 0 0 .557-1.411c-.049-.556-.429-.556-1.346-.556a.7.7 0 0 1 0 .107c-.075.5-.465 1.374-2.245 1.678a6.291 6.291 0 0 1-.166.78 5.127 5.127 0 0 1-1.464 2.479 3.184 3.184 0 0 1-2.116.809 2.218 2.218 0 0 1-1.942-1.236 3.805 3.805 0 0 1-2.8 1.229h-.06a1.784 1.784 0 0 1-1.777-1.951 4.3 4.3 0 0 1-3.191 1.951h-.067a1.47 1.47 0 0 1-1.25-.7 3.157 3.157 0 0 1-1.951.7h-.073a2.232 2.232 0 0 1-2.055-1.356 4.185 4.185 0 0 1-2.731 1.287 1.358 1.358 0 0 1-1.128-.5 1.831 1.831 0 0 1-.209-1.59l.692-2.572a2.592 2.592 0 0 1-1.805.819c-.087.008-.168.013-.238.013s-.152 0-.239-.013a3.954 3.954 0 0 1-.087.4 5.382 5.382 0 0 1-1.477 2.635 3.2 3.2 0 0 1-2.173.858 2.237 2.237 0 0 1-2.029-1.308 6.2 6.2 0 0 1-3.63 1.308 2.911 2.911 0 0 1-.249.013 2.547 2.547 0 0 1-2.355-3.515c.05-.192.112-.372.166-.526a2.333 2.333 0 0 1-.849.175h-.02a2.373 2.373 0 0 1-.6-.078 3.867 3.867 0 0 1-.087.449 5.346 5.346 0 0 1-1.469 2.635 3.186 3.186 0 0 1-2.171.857 2.219 2.219 0 0 1-1.951-1.21 3.606 3.606 0 0 1-2.478 1.21 1.358 1.358 0 0 1-1.128-.5 1.831 1.831 0 0 1-.209-1.59l.595-2.215c.158-.593.174-.944.05-1.106a.329.329 0 0 0-.284-.113c-.21 0-.839.169-2.137 1.736l-.292 1.094c-.5 1.894-1.012 2.7-1.707 2.7a.361.361 0 0 1-.044 0 .46.46 0 0 1-.4-.226l1.141-4.244a15.132 15.132 0 0 1-4.669 4.8 9.793 9.793 0 0 1-5.087 1.7 4.084 4.084 0 0 1-3.208-1.336A5.773 5.773 0 0 1 0 12.371a13.564 13.564 0 0 1 3.339-8.242C5.527 1.505 8.221 0 10.732 0a3.279 3.279 0 0 1 3.083 4.195 1.784 1.784 0 0 1-1.561 1.386c-.569 0-.664-.307-.673-.342.462-1.756.455-2.958-.021-3.574a1.332 1.332 0 0 0-1.121-.484c-1.2 0-2.773.91-4.218 2.435a14.685 14.685 0 0 0-3.45 6.218c-.866 3.234-.161 4.8.336 5.453a2.229 2.229 0 0 0 1.83.9c1.729 0 3.979-1.058 6.02-2.83a13.86 13.86 0 0 0 4.38-6.634l1.044-3.9c0-.007.087-.166.419-.166a.568.568 0 0 1 .478.215c.278.361.245 1.2-.1 2.487l-1.3 4.878a4.94 4.94 0 0 1 2.985-1.678.7.7 0 0 1 .58.264 1.957 1.957 0 0 1 .063 1.629l-.653 2.312c-.2.758-.2 1.28.008 1.55a.558.558 0 0 0 .47.206 2.03 2.03 0 0 0 1.415-1.063 2.706 2.706 0 0 1 0-.5 3.732 3.732 0 0 1 .127-.976c.594-2.187 1.984-3.493 3.717-3.493a2.235 2.235 0 0 1 2.2 2 .976.976 0 0 0 .621.224h.029a2.189 2.189 0 0 0 1.594-.692 3.792 3.792 0 0 1 2.927-1.57 1.839 1.839 0 0 1 1.514.587 1.227 1.227 0 0 1 .165 1.111 1.177 1.177 0 0 1-1.112.976.472.472 0 0 1-.05 0 .589.589 0 0 1-.5-.275c.427-.723.39-1.1.283-1.287a.6.6 0 0 0-.526-.264c-.731 0-1.716.922-2.185 2.683a2.39 2.39 0 0 0 .247 2.087 1.644 1.644 0 0 0 1.362.606 4.009 4.009 0 0 0 2.927-1.523 2.87 2.87 0 0 1 0-.634 4.221 4.221 0 0 1 .108-.536c.594-2.187 1.984-3.493 3.717-3.493a2.221 2.221 0 0 1 2.2 2v.157a.978.978 0 0 0 .438.107c1.154 0 2.039-.825 2.43-2.264L44.5 2.81s.089-.166.429-.166a.568.568 0 0 1 .478.215c.278.361.245 1.2-.1 2.487l-1.951 7.435c-.239.9-.1 1.338.056 1.543a.525.525 0 0 0 .423.212c.441 0 1.15-.467 1.668-1.493a3.559 3.559 0 0 1 .127-1.054C46.223 9.8 47.613 8.5 49.346 8.5h.013a2.126 2.126 0 0 1 1.6.722c.283-.486.6-.722.976-.722h.061a.555.555 0 0 1 .4.169l-1.1 4.126c-.2.76-.2 1.282.009 1.551a.558.558 0 0 0 .47.206 2.316 2.316 0 0 0 1.589-1.106A13.545 13.545 0 0 0 55.2 9.619h-1.288l.254-.976h1.318c.06-.169.343-1.175.945-3.362v-.013l.007-.025a.99.99 0 0 1 .018-.063v-.01s.098-.17.434-.17a.572.572 0 0 1 .482.218c.28.365.246 1.2-.1 2.485l-.253.976h2.516a1.674 1.674 0 0 1-1.746.976H56.7l-.859 3.181a1.605 1.605 0 0 0 .1 1.447.789.789 0 0 0 .645.309 2.038 2.038 0 0 0 .644-.117 3.327 3.327 0 0 0 1.376-1.084 4.23 4.23 0 0 1 0-.692 3.918 3.918 0 0 1 .117-.644c.593-2.187 1.983-3.492 3.717-3.492h.091a2.138 2.138 0 0 1 1.685.831 2.568 2.568 0 0 1 .419.976 1.488 1.488 0 0 0 1.21-.751A1.208 1.208 0 0 1 65 8.244c.112-.572.379-.839.839-.839s.817.532.907 1.355h1.6c.836 0 1.282.278 1.366.85a3.239 3.239 0 0 1-.546 1.807v.009a7.215 7.215 0 0 0-.62 1.462c-.2.76-.2 1.281 0 1.55a.564.564 0 0 0 .474.206 2.455 2.455 0 0 0 1.736-1.2 5.591 5.591 0 0 0 .927-2l.06-.2.021-.068.022-.07c.078-.253.167-.539.258-.807.4-1.174.837-1.7 1.4-1.7h.058a.562.562 0 0 1 .4.168l-1.1 4.146c-.158.593-.174.944-.05 1.106a.329.329 0 0 0 .284.113c.679 0 2.1-1.523 2.419-2.839.51-1.894 1.021-2.7 1.707-2.7a.572.572 0 0 1 .41.175L75.4 16.829a4.272 4.272 0 0 1-3.9 3.493zM62.517 9.385c-.566 0-1.776.673-2.3 3.219a2.578 2.578 0 0 0 .21 1.973.665.665 0 0 0 .531.242c.566 0 1.776-.673 2.3-3.219v-.01a2.442 2.442 0 0 0-.186-1.938.7.7 0 0 0-.555-.267zm-13.1-.078c-.566 0-1.776.673-2.3 3.22a2.571 2.571 0 0 0 .215 1.972.662.662 0 0 0 .527.242c.566 0 1.776-.673 2.3-3.219v-.01a2.446 2.446 0 0 0-.186-1.944.689.689 0 0 0-.558-.261zm-11.512 0c-.566 0-1.776.673-2.3 3.22a2.577 2.577 0 0 0 .21 1.972.667.667 0 0 0 .531.242c.566 0 1.777-.673 2.3-3.219v-.01a2.478 2.478 0 0 0-.191-1.944.684.684 0 0 0-.555-.261zm-13.346 0c-.566 0-1.777.673-2.3 3.22a2.574 2.574 0 0 0 .211 1.972.667.667 0 0 0 .531.242c.566 0 1.776-.673 2.3-3.219v-.01a2.473 2.473 0 0 0-.191-1.944.681.681 0 0 0-.553-.261z" class="cls-1" data-name="Shape" transform="translate(0 19.034)"/>
        <path id="Shape-6" d="M.517 1.044A.507.507 0 0 1 0 .527.517.517 0 0 1 .517 0a.507.507 0 0 1 .517.517.517.517 0 0 1-.517.527V.956A.439.439 0 0 0 .946.468a.429.429 0 0 0-.429-.39.439.439 0 0 0-.429.439.429.429 0 0 0 .429.429z" class="cls-1" data-name="Shape" transform="translate(53.766 .507)"/>
        <path id="Shape-7" d="M.088.585H0V0h.224c.137 0 .2 0 .2.156a.137.137 0 0 1-.141.156l.156.273h-.1L.2.312H.088V.234h.136c.068 0 .117 0 .117-.078s0-.068-.107-.068H.1z" class="cls-1" data-name="Shape" transform="translate(54.088 .741)"/>
        <path id="Shape-8" d="M.023 1.034a.439.439 0 0 0 .3.566.42.42 0 0 0 .5-.39L.872 0C.658.166.082.673.023 1.034z" class="cls-1" data-name="Shape" transform="translate(46.435 10.351)"/>
        <path id="Shape-9" d="M.069.59l1.18-.176a.137.137 0 0 0 .1-.127V.1c0-.068 0-.117-.1-.1L.069.3A.107.107 0 0 0 0 .414v.078S.03.59.069.59z" class="cls-1" data-name="Shape" transform="translate(29.307 2.435)"/>
        <path id="Shape-10" d="M0 3.415C3.21.244 6.976 2.293 8.166 0 6.215 1.883 3.844 0 .01 2.449z" class="cls-1" data-name="Shape" transform="translate(22.439 4.995)"/>
        <path id="Shape-11" d="M.059 1.1h.088v.976c0 .322.185.566.478.5h.156a.137.137 0 0 0 .088-.136v-.215c0-.059 0-.107-.088-.1-.2.039-.2-.049-.2-.224V1.1h.268A.117.117 0 0 0 .937.986V.733c0-.059 0-.1-.078-.088H.6V.128C.6.05.547-.009.479 0H.3a.166.166 0 0 0-.114.167v.576H.1A.117.117 0 0 0 .01.86v.24c-.029 0 .01.052.049 0z" class="cls-1" data-name="Shape" transform="translate(27.707 2.799)"/>
        <path id="Shape-12" d="M.614 1.9C.248 1.9 0 1.566 0 1.073A1.035 1.035 0 0 1 .792.009.81.81 0 0 1 .911 0c.444 0 .6.413.6.8a.154.154 0 0 1-.137.136L.4 1.112a.328.328 0 0 0 .352.332.448.448 0 0 0 .3-.254.147.147 0 0 1 .1-.078h.233a.055.055 0 0 1 .052.044.159.159 0 0 1 .007.044.923.923 0 0 1-.692.683.691.691 0 0 1-.138.017zM.82.387L.782.39A.468.468 0 0 0 .421.8l.693-.118a.3.3 0 0 0-.1-.221A.293.293 0 0 0 .82.387z" class="cls-1" data-name="Shape" transform="translate(29.189 3.103)"/>
        <path id="Shape-13" d="M.742.4c.136 0 .244 0 .283.121s.049.049.1 0h.185a.107.107 0 0 0 .068-.1c0-.273-.254-.478-.634-.41a.761.761 0 0 0-.7.741.42.42 0 0 0 .41.449H.81c.088 0 .166 0 .166.117s-.137.237-.276.266a.244.244 0 0 1-.3-.127c0-.068-.146-.059-.2 0H.078A.117.117 0 0 0 0 1.574c0 .283.293.5.7.4a.829.829 0 0 0 .7-.732A.41.41 0 0 0 1.015.8H.644C.556.8.478.8.478.677A.31.31 0 0 1 .742.4z" class="cls-1" data-name="Shape" transform="translate(26.302 3.636)"/>
        <path id="Shape-14" d="M.176 3.757l.176-.049a.244.244 0 0 0 .166-.224V1.64s.81 1.61.839 1.659a.2.2 0 0 0 .244.107l.263-.068a.224.224 0 0 0 .156-.215V.9L5.064.411a.127.127 0 0 0 .088-.127V.1c0-.059 0-.107-.088-.1L1.708.509a.215.215 0 0 0-.156.2V2.46S.791.889.732.791A.244.244 0 0 0 .469.674l-.3.059A.224.224 0 0 0 0 .967V3.64a.137.137 0 0 0 .176.117z" class="cls-1" data-name="Shape" transform="translate(22.438 2.935)"/>
        <path id="Shape-15" d="M12.805 22.543a18.43 18.43 0 0 1-7.919-1.571 7.359 7.359 0 0 1-4.154-4.445 7.608 7.608 0 0 1 1.229-6.176A4.884 4.884 0 0 1 .318 4.677a6.346 6.346 0 0 1 1.936-2.75A4.7 4.7 0 0 1 5.164.79a3.875 3.875 0 0 1 2.407.859A2.047 2.047 0 0 1 9.214.816a2.024 2.024 0 0 1 .834.184l.1.039h.018a1.4 1.4 0 0 0 .437.124A.361.361 0 0 0 10.9 1a.324.324 0 0 1 .175-.137.107.107 0 0 1 .037 0c.121 0 .246.126.246.336a6 6 0 0 1 .322 1.5 32.08 32.08 0 0 1 3.854-1.415A30.345 30.345 0 0 1 24 0a18.3 18.3 0 0 1 7.92 1.579 7.382 7.382 0 0 1 4.154 4.469 6.683 6.683 0 0 1-.279 4.3 12.845 12.845 0 0 1-2.892 4.3 27.074 27.074 0 0 1-11.63 6.619 30.5 30.5 0 0 1-8.468 1.276zm-7.9-14.1a9.511 9.511 0 0 0-.888.419 3.441 3.441 0 0 0-.653.458 4.337 4.337 0 0 0-.722.85 7.4 7.4 0 0 0-1.191 6.019 6.973 6.973 0 0 0 3.542 4.078 17.061 17.061 0 0 0 7.533 1.764c.177 0 .353 0 .526-.008a28.908 28.908 0 0 0 8.1-1.21h.019c9.325-2.76 15.7-9.329 14.2-14.644a7.018 7.018 0 0 0-3.609-4.108A16.83 16.83 0 0 0 23.728.3a29.1 29.1 0 0 0-8.118 1.222 30.522 30.522 0 0 0-3.9 1.463 5.566 5.566 0 0 1 0 .693 29.763 29.763 0 0 1 4.156-1.57A27.628 27.628 0 0 1 23.611.923a16.059 16.059 0 0 1 7.079 1.438 6.722 6.722 0 0 1 3.71 4.088c.7 2.453-.3 5.214-2.8 7.773a24.753 24.753 0 0 1-10.569 5.944 28.064 28.064 0 0 1-7.845 1.2 15.886 15.886 0 0 1-7.016-1.424 6.686 6.686 0 0 1-3.67-4.059c-.676-2.33.18-4.973 2.408-7.444zm3.8 7.629l3.608 4.875a25.52 25.52 0 0 0 3.083-.098l-5.025-7.092 5.347-11.288A28.538 28.538 0 0 0 11.961 3.9l-3.2 7.649V7.474a5.947 5.947 0 0 0-2.517.732l-.127 11.238a11.246 11.246 0 0 0 2.488.976l.107-4.347zM21.649 1.337c-.545.039-1.943.205-2.507.322l-.185 18.663c1.178-.259 1.949-.5 2.513-.674h.013l.079-.024.068-6.176L25 18.322a22.688 22.688 0 0 0 2.362-1.268l-4.1-5.952 4.019-9.473a18.683 18.683 0 0 0-2.92-.329L21.6 8.625l.049-7.288zM14.7 10.888l-1.951 1.1v4.487l1.951-.409zm.84.112l-.049 2.927a1.509 1.509 0 0 0 1.044 1.57 1.715 1.715 0 0 0 2.029-.976 2.786 2.786 0 0 0 .185-1.3l-.012.01-.032.033c-.157.163-.523.544-.842.544a.354.354 0 0 1-.243-.094c-.136-.117-.136-.374-.136-.887v-2.39l1.238-.312V8.7l-1.141.362V7.483l-.6.157-2.039 2.81v.7l.6-.156zm11.265-2.9a.259.259 0 0 1 .235.117.519.519 0 0 1-.065.491 3.188 3.188 0 0 1-.924.789h-.006l-.014.01a7.262 7.262 0 0 0-.7.525 2.423 2.423 0 0 0-.819 1.356 1.813 1.813 0 0 0 .829 2.01 2.061 2.061 0 0 0 2.137-.625 1.18 1.18 0 0 0 .691.221 1.191 1.191 0 0 0 1.163-.934 4 4 0 0 0 .194-1.131.552.552 0 0 1-.418.239.215.215 0 0 1-.158-.059.24.24 0 0 1-.058-.18V8a1.727 1.727 0 0 0-1.723-1.6 1.709 1.709 0 0 0-.688.143 3.879 3.879 0 0 0-1.736 1.561v1.652a5.68 5.68 0 0 1 1.951-1.649.51.51 0 0 1 .11-.013zm2.9-.318l-.046 2.918a1.509 1.509 0 0 0 1.054 1.571 1.715 1.715 0 0 0 2.038-.976 2.865 2.865 0 0 0 .185-1.3l-.041.042c-.158.164-.528.546-.85.546a.356.356 0 0 1-.24-.091c-.137-.117-.137-.374-.137-.887V7.22l1.219-.312V5.493l-1.141.361V4.263l-.6.157L29.1 7.23v.7l.6-.155zm-15.889.841a.82.82 0 0 0-.617.28 1.293 1.293 0 0 0-.264 1.58.822.822 0 0 0 .65.4h.052a.817.817 0 0 0 .644-.311h-.039A1.309 1.309 0 0 0 14.507 9a.824.824 0 0 0-.629-.376c-.02-.006-.041-.006-.06-.006zM4.985 1.247c-.122 0-.257.007-.4.021A4.488 4.488 0 0 0 1.9 2.927 5.564 5.564 0 0 0 .663 6.39v.264a4.5 4.5 0 0 0 1.649 3.239 4.584 4.584 0 0 1 1.844-1.639 15.6 15.6 0 0 1 4.225-1.288 3.868 3.868 0 0 0 1.5-.625 3.437 3.437 0 0 0 1.1-1.268 4.027 4.027 0 0 0 .41-1.639 5.22 5.22 0 0 0 0-.712 8.359 8.359 0 0 0-.259-1.522.618.618 0 0 1-.506.226 2.315 2.315 0 0 1-.616-.118 1.879 1.879 0 0 0-.81-.187 1.86 1.86 0 0 0-1.688 1.054 3.907 3.907 0 0 0-2.527-.928z" class="cls-1" data-name="Shape" transform="translate(20.234)"/>
        <path id="Shape-16" d="M.118 2.508h.156A.176.176 0 0 0 .4 2.352V.127A.117.117 0 0 0 .274 0H.118A.156.156 0 0 0 0 .166V2.4c.01.069.059.118.118.108z" class="cls-1" data-name="Shape" transform="translate(28.663 2.731)"/>
        <path id="Shape-17" d="M.65 2.189c-.387 0-.65-.373-.65-.929A1.229 1.229 0 0 1 .842.011.821.821 0 0 1 .972 0c.472 0 .641.465.641.9 0 .1-.036.2-.137.2l-1.034.237c.009.222.134.379.3.379a.307.307 0 0 0 .067-.008.472.472 0 0 0 .322-.283.155.155 0 0 1 .1-.088l.234-.059a.05.05 0 0 1 .018 0c.032 0 .059.038.079.112a1.028 1.028 0 0 1-.741.78.728.728 0 0 1-.171.019zM.823.43a.539.539 0 0 0-.381.478l.742-.156A.324.324 0 0 0 .823.43z" class="cls-1" data-name="Shape" transform="translate(24.661 3.882)"/>
        <path id="Shape-18" d="M.517 1.044A.507.507 0 0 1 0 .527.527.527 0 0 1 .517 0a.507.507 0 0 1 .517.517.517.517 0 0 1-.517.527V.956A.439.439 0 0 0 .946.517.429.429 0 0 0 .517.088a.439.439 0 0 0-.429.439.429.429 0 0 0 .429.429z" class="cls-1" data-name="Shape" transform="translate(32.312 .263)"/>
        <path id="Shape-19" d="M.088.585H0V0h.224c.137 0 .2 0 .2.156a.137.137 0 0 1-.141.156l.156.273h-.1L.185.312h-.1V.234h.139c.068 0 .117 0 .117-.078s0-.068-.117-.068H.088z" class="cls-1" data-name="Shape" transform="translate(32.634 .498)"/>
    </g>
</svg>