<svg xmlns="http://www.w3.org/2000/svg" width="375" height="264" data-name="Atoms/Brand/Dynamic K/Tall Bottom + Padding + Outline"><rect id="backgroundrect" width="100%" height="100%" x="0" y="0" fill="none" stroke="none"/>
    <defs>
        <style>
            .cls-1,.cls-5,.cls-6{fill:none}.cls-2{fill:#c40018}.cls-3{clip-path:url(#clip-path)}.cls-4{fill:rgba(0,0,0,0)}.cls-5,.cls-6{stroke:#861723;stroke-miterlimit:10}.cls-6{stroke-linecap:square}.cls-7{stroke:none}
        </style>
        <clipPath id="clip-path">
            <path id="Mask" d="M0 0h187v264H0z" class="cls-1"/>
        </clipPath>
    </defs>
    
    
<g class="currentLayer" style=""><title>Layer 1</title><g id="Group_3" data-name="Group 3" class="">
        <g id="Group_4" data-name="Group 4">
            <path id="Rectangle" d="M0.3921568691730499,-0.7843137681484221 h375 v80 H0.3921568691730499 z" class="cls-2"/>
            <path id="Fill_4_Copy_4" d="M0.3921568691730499,262.72468891739845 v-183.509 h375 v47.827 l-210.9,-47.173 L1.5921568691730499,262.72468891739845 z" class="cls-2" data-name="Fill 4 Copy 4"/>
        </g>
    </g><rect fill="#c40018" stroke="#c40018" stroke-dashoffset="" fill-rule="nonzero" id="svg_49" x="1" y="74.03921568393707" width="374" height="5" style="color: rgb(196, 0, 24);" class=""/><g id="Group" class="">
        <path id="Mask-2" d="M0 0h187v264H0z" class="cls-1" data-name="Mask"/>
        <g id="Group-2" class="cls-3" data-name="Group">
            <g id="Group-3" data-name="Group" transform="rotate(7 245.47900390625853,-2426.080078125001) ">
                <g id="Atoms_Brand_Finger_Outline" data-name="Atoms/Brand/Finger Outline" transform="rotate(124 -0.40700000524523844,303.54098510742193) ">
                    <path id="Atoms_Brand_Finger_Outline_background" d="M0 0h231.558v45.315H0z" class="cls-4" data-name="Atoms/Brand/Finger Outline background"/>
                    <g id="Group-4" data-name="Group">
                        <g id="Rectangle_1" class="cls-5" data-name="Rectangle 1">
                            <path d="M4.123000144958496,4.119999885559082 h223.313 v37.076 H4.123000144958496 z" class="cls-7" id="svg_1"/>
                            <path d="M4.623000144958496,4.619999885559082 h222.313 v36.076 H4.623000144958496 z" class="cls-1" id="svg_2"/>
                        </g>
                        <g id="Rectangle_1-2" class="cls-5" data-name="Rectangle 1">
                            <path d="M8.933000087738037,8.926000118255615 h213.693 v27.464 H8.933000087738037 z" class="cls-7" id="svg_3"/>
                            <path d="M9.433000087738037,9.426000118255615 h212.693 v26.464 H9.433000087738037 z" class="cls-1" id="svg_4"/>
                        </g>
                        <path id="Line_3" d="M4.810000151395798,4.806999862194061 l4.466,4.463 " class="cls-6" data-name="Line 3"/>
                        <path id="Line_3_Copy" d="M4.810000151395798,40.50999802398682 L9.276000151395799,36.046998023986816 " class="cls-6" data-name="Line 3 Copy"/>
                        <path id="Line_3_Copy_2" d="M226.74900380706788,4.806999862194061 L222.28300380706787,9.269999862194062 " class="cls-6" data-name="Line 3 Copy 2"/>
                        <path id="Line_3_Copy_3" d="M4.123000144958496,4.119999885559082 l4.426,4.422 " class="cls-6" data-name="Line 3 Copy 3" transform="rotate(-180 115.43600463867188,22.314998626708984) "/>
                    </g>
                    <g id="Rectangle_1-3" class="cls-5" data-name="Rectangle 1">
                        <path d="M0 0h231.558v45.315H0z" class="cls-7" id="svg_5"/>
                        <path d="M.5.5h230.558v44.315H.5z" class="cls-1" id="svg_6"/>
                    </g>
                </g>
                <g id="Atoms_Brand_Finger_Outline-2" data-name="Atoms/Brand/Finger Outline" transform="rotate(124 164.00599670410156,183.91000366210943) ">
                    <path id="Atoms_Brand_Finger_Outline_background-2" d="M0 0h231.558v45.315H0z" class="cls-4" data-name="Atoms/Brand/Finger Outline background"/>
                    <g id="Group-5" data-name="Group">
                        <g id="Rectangle_1-4" class="cls-5" data-name="Rectangle 1">
                            <path d="M4.123000144958496,4.119999885559082 h223.313 v37.076 H4.123000144958496 z" class="cls-7" id="svg_7"/>
                            <path d="M4.623000144958496,4.619999885559082 h222.313 v36.076 H4.623000144958496 z" class="cls-1" id="svg_8"/>
                        </g>
                        <g id="Rectangle_1-5" class="cls-5" data-name="Rectangle 1">
                            <path d="M8.933000087738037,8.926000118255615 h213.693 v27.464 H8.933000087738037 z" class="cls-7" id="svg_9"/>
                            <path d="M9.433000087738037,9.426000118255615 h212.693 v26.464 H9.433000087738037 z" class="cls-1" id="svg_10"/>
                        </g>
                        <path id="Line_3-2" d="M4.810000151395798,4.806999862194061 l4.466,4.463 " class="cls-6" data-name="Line 3"/>
                        <path id="Line_3_Copy-2" d="M4.810000151395798,40.50999802398682 L9.276000151395799,36.046998023986816 " class="cls-6" data-name="Line 3 Copy"/>
                        <path id="Line_3_Copy_2-2" d="M226.74900380706788,4.806999862194061 L222.28300380706787,9.269999862194062 " class="cls-6" data-name="Line 3 Copy 2"/>
                        <path id="Line_3_Copy_3-2" d="M4.123000144958496,4.119999885559082 l4.426,4.422 " class="cls-6" data-name="Line 3 Copy 3" transform="rotate(-180 115.43600463867188,22.314998626708984) "/>
                    </g>
                    <g id="Rectangle_1-6" class="cls-5" data-name="Rectangle 1">
                        <path d="M0 0h231.558v45.315H0z" class="cls-7" id="svg_11"/>
                        <path d="M.5.5h230.558v44.315H.5z" class="cls-1" id="svg_12"/>
                    </g>
                </g>
                <g id="Atoms_Brand_Finger_Outline-3" data-name="Atoms/Brand/Finger Outline" transform="rotate(124 45.51699829101561,246.85699462890628) ">
                    <path id="Atoms_Brand_Finger_Outline_background-3" d="M0 0h231.558v45.315H0z" class="cls-4" data-name="Atoms/Brand/Finger Outline background"/>
                    <g id="Group-6" data-name="Group">
                        <g id="Rectangle_1-7" class="cls-5" data-name="Rectangle 1">
                            <path d="M4.123000144958496,4.119999885559082 h223.313 v37.076 H4.123000144958496 z" class="cls-7" id="svg_13"/>
                            <path d="M4.623000144958496,4.619999885559082 h222.313 v36.076 H4.623000144958496 z" class="cls-1" id="svg_14"/>
                        </g>
                        <g id="Rectangle_1-8" class="cls-5" data-name="Rectangle 1">
                            <path d="M8.933000087738037,8.926000118255615 h213.693 v27.464 H8.933000087738037 z" class="cls-7" id="svg_15"/>
                            <path d="M9.433000087738037,9.426000118255615 h212.693 v26.464 H9.433000087738037 z" class="cls-1" id="svg_16"/>
                        </g>
                        <path id="Line_3-3" d="M4.810000151395798,4.806999862194061 l4.466,4.463 " class="cls-6" data-name="Line 3"/>
                        <path id="Line_3_Copy-3" d="M4.810000151395798,40.50999802398682 L9.276000151395799,36.046998023986816 " class="cls-6" data-name="Line 3 Copy"/>
                        <path id="Line_3_Copy_2-3" d="M226.74900380706788,4.806999862194061 L222.28300380706787,9.269999862194062 " class="cls-6" data-name="Line 3 Copy 2"/>
                        <path id="Line_3_Copy_3-3" d="M4.123000144958496,4.119999885559082 l4.426,4.422 " class="cls-6" data-name="Line 3 Copy 3" transform="rotate(-180 115.43600463867188,22.314998626708984) "/>
                    </g>
                    <g id="Rectangle_1-9" class="cls-5" data-name="Rectangle 1">
                        <path d="M0 0h231.558v45.315H0z" class="cls-7" id="svg_17"/>
                        <path d="M.5.5h230.558v44.315H.5z" class="cls-1" id="svg_18"/>
                    </g>
                </g>
                <g id="Atoms_Brand_Finger_Outline-4" data-name="Atoms/Brand/Finger Outline" transform="rotate(124 91.15899658203125,190.177001953125) ">
                    <path id="Atoms_Brand_Finger_Outline_background-4" d="M0 0h231.558v45.315H0z" class="cls-4" data-name="Atoms/Brand/Finger Outline background"/>
                    <g id="Group-7" data-name="Group">
                        <g id="Rectangle_1-10" class="cls-5" data-name="Rectangle 1">
                            <path d="M4.123000144958496,4.119999885559082 h223.313 v37.076 H4.123000144958496 z" class="cls-7" id="svg_19"/>
                            <path d="M4.623000144958496,4.619999885559082 h222.313 v36.076 H4.623000144958496 z" class="cls-1" id="svg_20"/>
                        </g>
                        <g id="Rectangle_1-11" class="cls-5" data-name="Rectangle 1">
                            <path d="M8.933000087738037,8.926000118255615 h213.693 v27.464 H8.933000087738037 z" class="cls-7" id="svg_21"/>
                            <path d="M9.433000087738037,9.426000118255615 h212.693 v26.464 H9.433000087738037 z" class="cls-1" id="svg_22"/>
                        </g>
                        <path id="Line_3-4" d="M4.810000151395798,4.806999862194061 l4.466,4.463 " class="cls-6" data-name="Line 3"/>
                        <path id="Line_3_Copy-4" d="M4.810000151395798,40.50999802398682 L9.276000151395799,36.046998023986816 " class="cls-6" data-name="Line 3 Copy"/>
                        <path id="Line_3_Copy_2-4" d="M226.74900380706788,4.806999862194061 L222.28300380706787,9.269999862194062 " class="cls-6" data-name="Line 3 Copy 2"/>
                        <path id="Line_3_Copy_3-4" d="M4.123000144958496,4.119999885559082 l4.426,4.422 " class="cls-6" data-name="Line 3 Copy 3" transform="rotate(-180 115.43600463867188,22.314998626708984) "/>
                    </g>
                    <g id="Rectangle_1-12" class="cls-5" data-name="Rectangle 1">
                        <path d="M0 0h231.558v45.315H0z" class="cls-7" id="svg_23"/>
                        <path d="M.5.5h230.558v44.315H.5z" class="cls-1" id="svg_24"/>
                    </g>
                </g>
                <g id="Atoms_Brand_Finger_Outline-5" data-name="Atoms/Brand/Finger Outline" transform="rotate(124 -26.826999664306676,252.94400024414068) ">
                    <path id="Atoms_Brand_Finger_Outline_background-5" d="M0 0h231.558v45.315H0z" class="cls-4" data-name="Atoms/Brand/Finger Outline background"/>
                    <g id="Group-8" data-name="Group">
                        <g id="Rectangle_1-13" class="cls-5" data-name="Rectangle 1">
                            <path d="M4.123000144958496,4.119999885559082 h223.313 v37.076 H4.123000144958496 z" class="cls-7" id="svg_25"/>
                            <path d="M4.623000144958496,4.619999885559082 h222.313 v36.076 H4.623000144958496 z" class="cls-1" id="svg_26"/>
                        </g>
                        <g id="Rectangle_1-14" class="cls-5" data-name="Rectangle 1">
                            <path d="M8.933000087738037,8.926000118255615 h213.693 v27.464 H8.933000087738037 z" class="cls-7" id="svg_27"/>
                            <path d="M9.433000087738037,9.426000118255615 h212.693 v26.464 H9.433000087738037 z" class="cls-1" id="svg_28"/>
                        </g>
                        <path id="Line_3-5" d="M4.810000151395798,4.806999862194061 l4.466,4.463 " class="cls-6" data-name="Line 3"/>
                        <path id="Line_3_Copy-5" d="M4.810000151395798,40.50999802398682 L9.276000151395799,36.046998023986816 " class="cls-6" data-name="Line 3 Copy"/>
                        <path id="Line_3_Copy_2-5" d="M226.74900380706788,4.806999862194061 L222.28300380706787,9.269999862194062 " class="cls-6" data-name="Line 3 Copy 2"/>
                        <path id="Line_3_Copy_3-5" d="M4.123000144958496,4.119999885559082 l4.426,4.422 " class="cls-6" data-name="Line 3 Copy 3" transform="rotate(-180 115.43600463867188,22.314998626708984) "/>
                    </g>
                    <g id="Rectangle_1-15" class="cls-5" data-name="Rectangle 1">
                        <path d="M0 0h231.558v45.315H0z" class="cls-7" id="svg_29"/>
                        <path d="M.5.5h230.558v44.315H.5z" class="cls-1" id="svg_30"/>
                    </g>
                </g>
                <g id="Atoms_Brand_Finger_Outline-6" data-name="Atoms/Brand/Finger Outline" transform="rotate(124 209.39300537109375,127.63999938964845) ">
                    <path id="Atoms_Brand_Finger_Outline_background-6" d="M0 0h231.558v45.315H0z" class="cls-4" data-name="Atoms/Brand/Finger Outline background"/>
                    <g id="Group-9" data-name="Group">
                        <g id="Rectangle_1-16" class="cls-5" data-name="Rectangle 1">
                            <path d="M4.123000144958496,4.119999885559082 h223.313 v37.076 H4.123000144958496 z" class="cls-7" id="svg_31"/>
                            <path d="M4.623000144958496,4.619999885559082 h222.313 v36.076 H4.623000144958496 z" class="cls-1" id="svg_32"/>
                        </g>
                        <g id="Rectangle_1-17" class="cls-5" data-name="Rectangle 1">
                            <path d="M8.933000087738037,8.926000118255615 h213.693 v27.464 H8.933000087738037 z" class="cls-7" id="svg_33"/>
                            <path d="M9.433000087738037,9.426000118255615 h212.693 v26.464 H9.433000087738037 z" class="cls-1" id="svg_34"/>
                        </g>
                        <path id="Line_3-6" d="M4.810000151395798,4.806999862194061 l4.466,4.463 " class="cls-6" data-name="Line 3"/>
                        <path id="Line_3_Copy-6" d="M4.810000151395798,40.50999802398682 L9.276000151395799,36.046998023986816 " class="cls-6" data-name="Line 3 Copy"/>
                        <path id="Line_3_Copy_2-6" d="M226.74900380706788,4.806999862194061 L222.28300380706787,9.269999862194062 " class="cls-6" data-name="Line 3 Copy 2"/>
                        <path id="Line_3_Copy_3-6" d="M4.123000144958496,4.119999885559082 l4.426,4.422 " class="cls-6" data-name="Line 3 Copy 3" transform="rotate(-180 115.43600463867188,22.314998626708984) "/>
                    </g>
                    <g id="Rectangle_1-18" class="cls-5" data-name="Rectangle 1">
                        <path d="M0 0h231.558v45.315H0z" class="cls-7" id="svg_35"/>
                        <path d="M.5.5h230.558v44.315H.5z" class="cls-1" id="svg_36"/>
                    </g>
                </g>
                <g id="Atoms_Brand_Finger_Outline-7" data-name="Atoms/Brand/Finger Outline" transform="rotate(124 137.3240051269531,133.77099609375003) ">
                    <path id="Atoms_Brand_Finger_Outline_background-7" d="M0 0h231.558v45.315H0z" class="cls-4" data-name="Atoms/Brand/Finger Outline background"/>
                    <g id="Group-10" data-name="Group">
                        <g id="Rectangle_1-19" class="cls-5" data-name="Rectangle 1">
                            <path d="M4.123000144958496,4.119999885559082 h223.313 v37.076 H4.123000144958496 z" class="cls-7" id="svg_37"/>
                            <path d="M4.623000144958496,4.619999885559082 h222.313 v36.076 H4.623000144958496 z" class="cls-1" id="svg_38"/>
                        </g>
                        <g id="Rectangle_1-20" class="cls-5" data-name="Rectangle 1">
                            <path d="M8.933000087738037,8.926000118255615 h213.693 v27.464 H8.933000087738037 z" class="cls-7" id="svg_39"/>
                            <path d="M9.433000087738037,9.426000118255615 h212.693 v26.464 H9.433000087738037 z" class="cls-1" id="svg_40"/>
                        </g>
                        <path id="Line_3-7" d="M4.810000151395798,4.806999862194061 l4.466,4.463 " class="cls-6" data-name="Line 3"/>
                        <path id="Line_3_Copy-7" d="M4.810000151395798,40.50999802398682 L9.276000151395799,36.046998023986816 " class="cls-6" data-name="Line 3 Copy"/>
                        <path id="Line_3_Copy_2-7" d="M226.74900380706788,4.806999862194061 L222.28300380706787,9.269999862194062 " class="cls-6" data-name="Line 3 Copy 2"/>
                        <path id="Line_3_Copy_3-7" d="M4.123000144958496,4.119999885559082 l4.426,4.422 " class="cls-6" data-name="Line 3 Copy 3" transform="rotate(-180 115.43600463867188,22.314998626708984) "/>
                    </g>
                    <g id="Rectangle_1-21" class="cls-5" data-name="Rectangle 1">
                        <path d="M0 0h231.558v45.315H0z" class="cls-7" id="svg_41"/>
                        <path d="M.5.5h230.558v44.315H.5z" class="cls-1" id="svg_42"/>
                    </g>
                </g>
                <g id="Atoms_Brand_Finger_Outline-8" data-name="Atoms/Brand/Finger Outline" transform="rotate(124 18.836000442504876,196.71899414062503) ">
                    <path id="Atoms_Brand_Finger_Outline_background-8" d="M0 0h231.558v45.315H0z" class="cls-4" data-name="Atoms/Brand/Finger Outline background"/>
                    <g id="Group-11" data-name="Group">
                        <g id="Rectangle_1-22" class="cls-5" data-name="Rectangle 1">
                            <path d="M4.123000144958496,4.119999885559082 h223.313 v37.076 H4.123000144958496 z" class="cls-7" id="svg_43"/>
                            <path d="M4.623000144958496,4.619999885559082 h222.313 v36.076 H4.623000144958496 z" class="cls-1" id="svg_44"/>
                        </g>
                        <g id="Rectangle_1-23" class="cls-5" data-name="Rectangle 1">
                            <path d="M8.933000087738037,8.926000118255615 h213.693 v27.464 H8.933000087738037 z" class="cls-7" id="svg_45"/>
                            <path d="M9.433000087738037,9.426000118255615 h212.693 v26.464 H9.433000087738037 z" class="cls-1" id="svg_46"/>
                        </g>
                        <path id="Line_3-8" d="M4.810000151395798,4.806999862194061 l4.466,4.463 " class="cls-6" data-name="Line 3"/>
                        <path id="Line_3_Copy-8" d="M4.810000151395798,40.50999802398682 L9.276000151395799,36.046998023986816 " class="cls-6" data-name="Line 3 Copy"/>
                        <path id="Line_3_Copy_2-8" d="M226.74900380706788,4.806999862194061 L222.28300380706787,9.269999862194062 " class="cls-6" data-name="Line 3 Copy 2"/>
                        <path id="Line_3_Copy_3-8" d="M4.123000144958496,4.119999885559082 l4.426,4.422 " class="cls-6" data-name="Line 3 Copy 3" transform="rotate(-180 115.43600463867188,22.314998626708984) "/>
                    </g>
                    <g id="Rectangle_1-24" class="cls-5" data-name="Rectangle 1">
                        <path d="M0 0h231.558v45.315H0z" class="cls-7" id="svg_47"/>
                        <path d="M.5.5h230.558v44.315H.5z" class="cls-1" id="svg_48"/>
                    </g>
                </g>
            </g>
        </g>
    </g></g></svg>