<svg xmlns="http://www.w3.org/2000/svg" viewBox="0 0 587.44 285.57"><defs><style>.cls-1{fill:#c32126;}.cls-2,.cls-3{fill:#fff;}.cls-3{fill-rule:evenodd;}</style></defs><title>Asset 1</title><g id="Layer_2" data-name="Layer 2"><g id="Logo"><path class="cls-1" d="M247.33,158.78c-48.87,0-85.1-18.83-92.31-48-3.12-12.61-.53-26.45,7.5-40l.52-.87-.66-.77a28.6,28.6,0,0,1-6.68-15.62c0-.56-.09-1.1-.12-1.65a34.78,34.78,0,0,1,6.89-22.36A28.48,28.48,0,0,1,179,18.28a17.78,17.78,0,0,1,3.86-.4,25.62,25.62,0,0,1,13.66,4.24l1.11.72.8-1.05c2.74-3.63,5.72-5.32,9.4-5.32a21.59,21.59,0,0,1,4.84.71l.11,0a17.13,17.13,0,0,0,3.51.55,3.37,3.37,0,0,0,2.86-1.33.55.55,0,0,1,.45-.22h.1a.54.54,0,0,1,.44.39c.33,1,.89,3.19,1,3.44l.37,1.45L223,21l.2-.09a212.72,212.72,0,0,1,38-13.26,207.57,207.57,0,0,1,49.7-6.24c48.87,0,85.1,18.82,92.31,48,4.76,19.21-3.57,40.5-23.44,59.94-20.06,19.63-49.43,35-82.7,43.21a207.09,207.09,0,0,1-49.7,6.25Z"/><g id="KK_Logo" data-name="KK Logo"><path class="cls-2" d="M404.55,49C394.46,8.28,330.11-10.86,260.82,6.29a212.44,212.44,0,0,0-38.21,13.35l-.1,0h0s-.62-2.36-1-3.51a2,2,0,0,0-3.47-.64c-.81,1-1.78,1-4.94.28l-.1,0c-4.07-.92-10.08-2.28-15.69,5.14-5.7-3.73-12.81-5.31-18.61-4a30,30,0,0,0-17.39,11.79h0A36.18,36.18,0,0,0,154.17,52c0,.58.06,1.14.12,1.73a30,30,0,0,0,7,16.39c-8,13.5-11,27.63-7.66,41.08,10.09,40.76,74.44,59.9,143.73,42.75S414.64,89.81,404.55,49ZM156.84,54.73c-.07-.53-.12-1.07-.16-1.61A34.48,34.48,0,0,1,163.05,31a28,28,0,0,1,16-11.37c5.78-1.39,13.25.45,18.72,4.47l.08.06.06-.1c5-8.24,10.38-7,14.71-6.17,2.86.59,5.29,1.08,6.93-1.12a51.51,51.51,0,0,1,2.27,9.38,37.91,37.91,0,0,1,.33,4.41,25.37,25.37,0,0,1-1.93,10.37,21.17,21.17,0,0,1-6.37,8.31,24.21,24.21,0,0,1-9.08,4.47c-10.59,2.69-19.44,5.86-25.64,9.62a28.6,28.6,0,0,0-10.8,10.89A27.83,27.83,0,0,1,156.84,54.73Zm139.91,96.7C229.8,168,167.61,149.5,157.86,110.11c-3-12.21-.65-25,6.06-37.32l.55.5h0a20.45,20.45,0,0,0,3.22,2.34c-5.41,11-7.19,22.32-4.5,33.16,3.13,12.63,11.89,23,24.57,30.63l.15-79.21.63-.24a135.43,135.43,0,0,1,15.94-4.66l0,27.75,24.9-59.94q-2.9,1.3-5.7,2.67c-.14-1.13-.32-2.28-.56-3.46A206.18,206.18,0,0,1,261.44,8.77C328.39-7.8,390.58,10.69,400.33,50.09S363.71,134.85,296.75,151.43Z"/><path class="cls-2" d="M208.11,28.83l7.26-1.56a.82.82,0,0,0,.55-.86l0-1.08c0-.41-.29-.7-.61-.59l-7.2,2.35a.66.66,0,0,0-.41.67l0,.66C207.69,28.69,207.89,28.88,208.11,28.83Z"/><path class="cls-2" d="M205.27,42.83l1-.3a1.11,1.11,0,0,0,.75-1l-.75-13.8a.75.75,0,0,0-.84-.74l-1,.22a1,1,0,0,0-.64,1.05l.77,13.9C204.58,42.63,204.9,42.94,205.27,42.83Z"/><path class="cls-2" d="M166.81,59l.31,6c18.73-21,42.9-9.66,49.43-24.42C205.1,53.07,189.7,42.51,166.81,59Z"/><path class="cls-2" d="M198.48,35.19l.55-.14.26,5.78c.1,2,1.35,3.48,3.2,2.93l1-.29a.85.85,0,0,0,.52-.85l-.05-1c0-.38-.28-.63-.58-.54l-.14.05c-.87.24-1.39-.33-1.44-1.36l-.24-5.29,1.61-.41a.76.76,0,0,0,.48-.77l-.05-.95c0-.36-.26-.59-.53-.52l-1.61.38-.16-3.52c0-.5-.37-.84-.76-.75l-1.07.23a1,1,0,0,0-.67,1.07l.16,3.56-.54.13a.77.77,0,0,0-.5.79l.05,1C197.94,35,198.19,35.26,198.48,35.19Z"/><path class="cls-2" d="M167.52,54.29l1.09-.4a1.53,1.53,0,0,0,1-1.48L168.91,41s5.66,9.69,5.84,9.95a1.23,1.23,0,0,0,1.53.55l1.64-.52a1.45,1.45,0,0,0,.91-1.42l-.69-13.84,18.71-4.22a.8.8,0,0,0,.51-.83l-.05-1c0-.39-.27-.66-.58-.59l-20.65,4.45a1.31,1.31,0,0,0-.9,1.36l.62,10.82s-5.33-9.44-5.72-10.07a1.54,1.54,0,0,0-1.69-.63l-1.84.45a1.41,1.41,0,0,0-1,1.42l.86,16.61A.86.86,0,0,0,167.52,54.29Z"/><path class="cls-2" d="M193.87,33.66A4.75,4.75,0,0,0,190,38.53a2.6,2.6,0,0,0,2.72,2.64l2.23.1c.56,0,1.07.11,1.1.69,0,.95-.73,1.5-1.6,1.76a1.54,1.54,0,0,1-1.94-.68c-.16-.4-.93-.28-1.3-.18l-.73.25a.73.73,0,0,0-.44.72V44c.09,1.75,2,3,4.52,2.22a5.18,5.18,0,0,0,3.94-5.08A2.53,2.53,0,0,0,196,38.46l-2.32-.13c-.53,0-1.06-.12-1.09-.7,0-.9.59-1.37,1.41-1.58s1.53,0,1.8.64c.12.3.34.31.63.23l1.15-.3A.65.65,0,0,0,198,36C197.87,34.25,196.2,33.1,193.87,33.66Z"/><path class="cls-2" d="M216,36l-1.36.35a.88.88,0,0,0-.56.51,2.79,2.79,0,0,1-1.78,1.69c-1.24.32-2.16-.63-2.28-1.9l5.91-1.47a1,1,0,0,0,.73-1.15c-.11-2.81-1.59-5.33-4.76-4.64s-4.63,3.89-4.49,6.9c.13,3.2,2.09,5.52,5,4.73a5.71,5.71,0,0,0,4-4.49C216.48,36.27,216.32,35.94,216,36Zm-4-4.3a1.81,1.81,0,0,1,2.21,1.69l-4.27,1A2.88,2.88,0,0,1,212,31.72Z"/><path class="cls-2" d="M188.73,43.36l-1.46.44a1,1,0,0,0-.59.61,2.92,2.92,0,0,1-1.9,1.85c-1.33.41-2.31-.68-2.45-2.14l6.32-1.87c.56-.17.79-.64.76-1.33-.15-3.23-1.77-6.09-5.15-5.23-3.23.82-4.92,4.61-4.75,8.08.19,3.71,2.32,6.32,5.42,5.32A6.41,6.41,0,0,0,189.21,44C189.24,43.63,189.07,43.26,188.73,43.36Zm-4.34-5a1.94,1.94,0,0,1,2.38,1.91l-4.55,1.28A3.35,3.35,0,0,1,184.39,38.35Z"/><path class="cls-2" d="M298.23,6.4l-.07,51.16L316.81,6.3A172.33,172.33,0,0,0,298.23,6.4Z"/><path class="cls-2" d="M298.65,147.61a196.38,196.38,0,0,0,32.17-11.44l-32.19-45.3Z"/><path class="cls-2" d="M262.21,11.91q-3.81.94-7.52,2L215.77,96.87,257,154a190.65,190.65,0,0,0,23.84-2.51l.24-143.27C274.86,9.1,268.56,10.33,262.21,11.91ZM237.5,62.78c3.31-3.21,7.6-3,9.79.3s1.35,8.63-1.86,11.8-7.61,3.05-9.78-.23S234.19,66,237.5,62.78Zm-3.39,57.3V85.58l14.36-8.75,0,39.83Zm43.55-13.93a12.4,12.4,0,0,1-14.86,6.71c-3-1-7.85-4-7.83-11.56l.13-21.65-4.4,1.09.11-5.09,14.76-20.59L270,54l-.14,11.68,9-2.23-.09,10.37-9.09,2.27-.14,17.63c0,3.85.14,5.72,1.09,6.56,2.81,2.51,7-2.45,8.33-3.58A20.86,20.86,0,0,1,277.66,106.15Z"/><path class="cls-2" d="M204.46,147.12a129.41,129.41,0,0,0,31.28,6.39l-31-42Z"/><path class="cls-2" d="M336.31,80.37c-.48,3,1.3,4.12,2.44,4.38a3.29,3.29,0,0,0,3.83-3.13l.29-9.39C341.15,73.51,336.77,77.55,336.31,80.37Z"/><path class="cls-2" d="M395,51.41a43,43,0,0,0-6.46-14.22l-.09,10.12-9.08,2.28-.14,17.64c0,3.85.14,5.71,1.09,6.56,2.81,2.51,7-2.46,8.33-3.58a20.87,20.87,0,0,1-1.29,9.48,12.42,12.42,0,0,1-14.85,6.71c-3-1-7.86-4-7.83-11.57l.12-21.64-4.4,1.09.11-5.1,14.85-20.7,4.29-1.07c-10.5-9.07-25.4-15.51-43-18.8L309.64,74.36l37.82,53.07C381.8,106.87,401.52,77.74,395,51.41ZM360.79,85.3c-2.46,6.85-8.37,9.26-14.35,5.65-5.55,5.62-11.64,6.57-16.55,5-4.49-1.42-8.15-9.14-6.66-15.52a19,19,0,0,1,6.22-10.59c3.82-3.52,11-7.25,12.66-10.41,1.32-2.43.39-5.23-2.28-4.58-4.41,1-11.76,9.22-15.15,13l.08-12.78C327.08,51.3,332,45,338.09,42.83c8.64-3.08,18.56,1.6,18.83,11.06l0,23.07c0,2.4,3.57,1.67,5.26-.48A30.71,30.71,0,0,1,360.79,85.3Z"/><path class="cls-2" d="M379.66,27.43l-.14,11.76v.23l9-2.23-.15-.2A51.87,51.87,0,0,0,379.66,27.43Z"/></g><g id="Registered_Marks" data-name="Registered Marks"><path class="cls-3" d="M392.91,17.93a1,1,0,0,0-1-1h-2.26V21h.63V19.13H391L392.13,21h.81l-1.22-1.85A1.09,1.09,0,0,0,392.91,17.93Zm-2.61.58v-1h1.4s.53,0,.53.48c0,0,.17.56-.51.56Zm.8-3.36a3.77,3.77,0,1,0,3.76,3.77A3.77,3.77,0,0,0,391.1,15.15Zm0,6.84a3.07,3.07,0,1,1,3.07-3.07A3.07,3.07,0,0,1,391.1,22Z"/><path class="cls-3" d="M227.14,12.13a1,1,0,0,0-1-1H223.9v4.06h.63V13.33h.65l1.18,1.82h.81L226,13.3A1.08,1.08,0,0,0,227.14,12.13Zm-2.61.58v-1h1.41s.52,0,.52.48c0,0,.17.56-.51.56Zm.8-3.36a3.77,3.77,0,1,0,3.77,3.77A3.77,3.77,0,0,0,225.33,9.35Zm0,6.84a3.07,3.07,0,1,1,3.07-3.07A3.06,3.06,0,0,1,225.33,16.19Z"/><path class="cls-2" d="M579.56,235.14a7.89,7.89,0,0,0-7.71,8,7.74,7.74,0,0,0,7.91,7.74,7.86,7.86,0,0,0,7.68-8A7.69,7.69,0,0,0,579.56,235.14Zm.17,14.47a6.51,6.51,0,0,1-6.6-6.47,6.59,6.59,0,0,1,6.46-6.72,6.47,6.47,0,0,1,6.59,6.45A6.64,6.64,0,0,1,579.73,249.61Z"/><path class="cls-2" d="M583.11,240.92c0-1.83-1-2.33-3.1-2.28l-3.4.05.09,8.86,1.37,0-.05-4.12,1.52,0,2.21,4.06,1.52,0-2.39-4.17A2.07,2.07,0,0,0,583.11,240.92ZM578,242.16l0-2.19,2.1-.05c1.17,0,1.68.12,1.7,1s-.71,1.11-1.71,1.15Z"/></g><path id="Chocolatory" class="cls-2" d="M561,200.38c-4.66,0-8.48,4.91-12.43,19.62-2.64,9.83-12.71,20.54-17.61,20.54-2.47,0-3.64-1.7-1.73-8.84l8-30.13s-.87-1.19-3.32-1.19c-3.81,0-7.06,3.24-10.23,12.37-.94,2.68-1.78,5.51-2.62,8.27-1.3,4.25-2.46,8.85-6.73,14.55-4.68,6.25-9.36,8.7-12.66,8.7-3.95,0-6-3.4-3.46-12.74,2.76-10.34,9.47-16.49,8.49-23.86-.54-3.92-3.54-6.14-9.92-6.14H485.21c-.64-5.79-3.15-9.83-6.56-9.83-2.95,0-5.31,2.16-6.09,6.09a8.78,8.78,0,0,0,6.16,10,.83.83,0,0,0,0,.27c-1.1,3.11-4.88,4.71-8.78,5.46a18.34,18.34,0,0,0-3.05-7s0-.05-.05-.07a15.45,15.45,0,0,0-12.58-6.33c-11.42,0-22.34,8.17-27,25.41a28.07,28.07,0,0,0-.82,4.68,31.17,31.17,0,0,0,.13,5.06,24.09,24.09,0,0,1-10,7.84,14.46,14.46,0,0,1-4.7.86c-3.93,0-7.92-3.4-5.42-12.74l6.22-23.1h7.84c10.82,0,12.68-6.9,12.68-6.9H414.49l1.84-6.84c3.95-14.72,1.89-19.65-2.76-19.65-2.48,0-3.11,1.21-3.11,1.21s-6.28,23.09-6.93,25.28h-9.72l-1.84,6.9h9.36C392.46,234.45,382.75,244,376.39,244c-3.93,0-6-3.4-3.47-12.74l8-30s-.86-1.19-3.32-1.19-4.87,1.5-7.08,5.28a15.44,15.44,0,0,0-11.72-5.28c-11.44,0-22.34,8.17-27,25.41a26,26,0,0,0-.95,7.69C327,240.79,321.81,244,318.76,244c-3.93,0-6-3.4-3.46-12.74l14.48-54c3.94-14.7,1.89-19.64-2.78-19.64-2.46,0-3.09,1.21-3.09,1.21l-11.06,41.3c-3.17,11.79-10.32,16.44-17.69,16.44a6.74,6.74,0,0,1-3.23-.79c0-.37-.08-.74-.14-1.11-1.39-8.82-7.94-14.56-15.94-14.56-11.42,0-22.34,8.17-27,25.41a32.09,32.09,0,0,0-.75,3.87A20.91,20.91,0,0,0,248,234C242.63,240.67,234,245,226.91,245c-9.83,0-14.7-8.25-11.68-19.55,3.5-13,10.74-19.5,15.89-19.5,3,0,7.14,2.26,1.77,11.31a4.28,4.28,0,0,0,3.94,2c2.94,0,6.74-1.89,8.06-6.8,2-7.37-2.87-12.38-12.19-12.38-7.28,0-15.41,3.73-21.38,11.39a15.91,15.91,0,0,1-11.75,5.07,6.78,6.78,0,0,1-4.5-1.65l-.29-.25c-1.4-8.82-7.95-14.56-15.95-14.56-11.42,0-22.34,8.17-27,25.41a27.89,27.89,0,0,0-1,7.12,19.89,19.89,0,0,0,.35,3.64c-3.56,5.41-7.72,7.76-10.32,7.76-3.92,0-5.95-3.4-3.45-12.74,2.33-8.72,4.68-17.45,4.68-17.45,2.49-9.34-.24-13.74-4.67-13.74-8.76,0-17.65,7.92-22,12.48l9.46-35.33c3.94-14.7,1.9-19.64-2.78-19.64-2.45,0-3.06,1.21-3.06,1.21l-7.58,28.26c-9.66,36.85-50.07,68.8-75.62,68.8-14.74,0-23.63-16.72-15.72-46.2C30,173,58.67,146.76,75.87,146.76c8.84,0,14.25,7.35,8.32,29.47,0,0,.51,2.46,4.92,2.46,3.19,0,9.41-2.72,11.38-10.09,3.68-13.75-5.06-30.68-22.26-30.68C38.92,137.92,0,188,0,227.82c0,24.58,12.29,37.84,32,37.84,22.52,0,52.41-17.26,71.13-47.29l-8.27,30.86A3.34,3.34,0,0,0,98,250.89c4.67,0,8.49-4.91,12.43-19.63l2.12-7.91c3.38-4.08,11-12.63,15.5-12.63,2.46,0,3.64,1.72,1.73,8.85,0,0-2.17,8.13-4.32,16.12s1.19,15.2,9.69,15.2c5.51,0,12.37-2.89,18-8.77a16.21,16.21,0,0,0,14.4,8.77c11.43,0,21.82-8.17,26.49-25.41a27.64,27.64,0,0,0,.66-3.23l.32.09a17.23,17.23,0,0,0,4.53.58,17,17,0,0,0,6.19-1.27c-.45,1.23-.87,2.49-1.22,3.83-4,14.74,4.17,25.44,18.91,25.44,7.74,0,18.3-3.13,26.37-9.52a16.26,16.26,0,0,0,14.74,9.49c11.44,0,21.85-8.17,26.52-25.41a28.68,28.68,0,0,0,.61-2.89,18.5,18.5,0,0,0,3.47.33c4.33,0,9-1.8,13.16-5.93l-5,18.7c-2.14,8,1.18,15.2,9.69,15.2,5.69,0,13.56-3.08,19.89-9.34a16.23,16.23,0,0,0,14.69,9.34A22.81,22.81,0,0,0,362,245.76a10.66,10.66,0,0,0,9.6,5.13c7.45,0,15.61-4.42,23.21-13.86-.05,8.85,6.14,13.86,13.23,13.86,8.54,0,14.18-3,20.49-8.92A16.16,16.16,0,0,0,443,251c11.07,0,21.17-7.7,26-23.9a48,48,0,0,0,1.18-5.69c7.46-1.24,15.15-4.7,16.31-12.2a4.78,4.78,0,0,0,0-.75c6.68,0,9.42.31,9.78,4.05.5,4.92-7.35,13.2-10.11,23.48-2.14,8,3.15,15.2,11.64,15.2,5.85,0,12.07-2.72,18.13-8.46-.35,5.73,2,8.5,5.51,8.5,8.84,0,17.75-8,22.11-12.53l-5.71,21.52c-3.5,13-10.76,19.49-15.91,19.49-3,0-7.12-2.27-1.75-11.3a4.28,4.28,0,0,0-4-2c-3,0-6.75,1.9-8.06,6.81-2,7.37,2.86,12.37,12.2,12.37,10.81,0,23.54-8.17,28.17-25.39l15.72-58.61S563.44,200.38,561,200.38ZM183.89,221.59c-3.52,17.19-11.73,23.4-16.74,23.4s-7.44-6.12-5.41-16.09c3.52-17.19,11.75-23.4,16.75-23.4S185.93,211.63,183.89,221.59Zm97,0c-3.52,17.19-11.73,23.4-16.74,23.4s-7.44-6.12-5.41-16.09c3.52-17.19,11.75-23.4,16.75-23.4S283,211.63,280.91,221.59Zm83.7,0c-3.52,17.19-11.75,23.4-16.76,23.4s-7.44-6.12-5.39-16.09c3.52-17.19,11.74-23.4,16.74-23.4S366.64,211.63,364.61,221.59Zm95.27.59c-3.52,17.19-11.73,23.4-16.74,23.4s-7.44-6.12-5.41-16.09c3.53-17.19,11.75-23.4,16.75-23.4S461.92,212.22,459.88,222.18Z"/><g id="Lines"><path class="cls-2" d="M144,117.21H0v4.17H145.53C145,120,144.45,118.63,144,117.21Z"/><path class="cls-2" d="M387.64,117.21c-1.46,1.41-3,2.8-4.51,4.17H564.31v-4.17Z"/></g></g></g></svg>