<svg xmlns="http://www.w3.org/2000/svg" width="264.535" height="68.7" viewBox="0 0 264.535 68.7">
    <defs>
        <style>
            .cls-1{fill:#d8d8d8}.cls-2{clip-path:url(#clip-path)}
        </style>
        <clipPath id="clip-path">
            <path id="Clip_2" d="M244.057 68.7h-.047c-2.335 0-4.151-.693-5.113-1.945a4.3 4.3 0 0 1-.574-3.843 4.4 4.4 0 0 1 1.594-2.461 3.72 3.72 0 0 1 2.178-.738h.008a2.014 2.014 0 0 1 1.844.922c-1.46 2.469-1.329 3.753-.963 4.4a1.993 1.993 0 0 0 1.791.9h.005c2.488-.007 5.842-3.155 7.437-9.157l2.65-10.094c-2.107 2.2-6.256 5.886-10.347 5.9h-.008a2.323 2.323 0 0 1-1.741-.712 4.327 4.327 0 0 1-.847-3.266c-2.733 2.606-5.669 3.986-8.491 3.992h-.019a5.589 5.589 0 0 1-4.562-2.12 5.711 5.711 0 0 1-.892-4.994 27.442 27.442 0 0 1 2.861-6.34v-.006l.005-.01c1.054-1.873 1.964-3.49 1.84-4.663-.169-1.717-1.395-1.887-4.362-1.887h-.225a2.235 2.235 0 0 1-.02.351c-.607 3.974-5.043 5.3-7.634 5.737v.014a21.768 21.768 0 0 1-.546 2.657 17.729 17.729 0 0 1-4.986 8.463 10.8 10.8 0 0 1-7.187 2.776h-.017a7.56 7.56 0 0 1-6.765-4.2 16.554 16.554 0 0 1-4.4 3.142 12.136 12.136 0 0 1-5.194 1.064h-.017a6.164 6.164 0 0 1-4.415-1.754 6.487 6.487 0 0 1-1.786-4.726 20.329 20.329 0 0 1-5.456 4.922 10.757 10.757 0 0 1-5.411 1.6h-.021a4.978 4.978 0 0 1-4.482-2.39 10.779 10.779 0 0 1-6.763 2.419h-.019a7.538 7.538 0 0 1-4.042-1.163 7.916 7.916 0 0 1-2.837-3.2 16.4 16.4 0 0 1-4.767 3.3 11.613 11.613 0 0 1-4.549 1.1h-.016a4.607 4.607 0 0 1-3.824-1.69 6.254 6.254 0 0 1-.722-5.427l2.331-8.771a8.847 8.847 0 0 1-6.161 2.794h-.028a8.2 8.2 0 0 1-1.6-.151 13.118 13.118 0 0 1-.283 1.362 18.333 18.333 0 0 1-5 9 10.869 10.869 0 0 1-7.4 2.942h-.019a7.5 7.5 0 0 1-4.064-1.184 7.936 7.936 0 0 1-2.838-3.246 21.272 21.272 0 0 1-12.353 4.5h-.035c-3.3 0-6.014-1.168-7.645-3.288-1.68-2.198-2.108-5.257-1.215-8.631.18-.708.41-1.365.567-1.8a7.9 7.9 0 0 1-2.9.6h-.01a8.2 8.2 0 0 1-2.113-.264l-.152-.042a13.706 13.706 0 0 1-.307 1.516 18.355 18.355 0 0 1-5 9 10.851 10.851 0 0 1-7.387 2.942h-.022a7.574 7.574 0 0 1-6.739-4.091 14.532 14.532 0 0 1-4.243 3.1 10.1 10.1 0 0 1-4.2 1.03h-.017a4.606 4.606 0 0 1-3.822-1.689 6.248 6.248 0 0 1-.72-5.424c.749-2.814 1.532-5.768 1.841-6.937l.122-.458v-.014c.025-.094.04-.147.04-.151.533-2.005.581-3.2.15-3.758a1.131 1.131 0 0 0-.966-.389h-.005c-2.133.006-5.782 4.157-7.252 5.941l-.986 3.711c-1.71 6.454-3.445 9.21-5.8 9.213h-.01a1.575 1.575 0 0 1-1.493-.77l3.846-14.478A52.267 52.267 0 0 1 32.351 54.1c-5.848 3.759-12 5.836-17.329 5.85h-.054a16.111 16.111 0 0 1-6.209-1.15 12.549 12.549 0 0 1-4.708-3.391 15.393 15.393 0 0 1-2.992-5.547A25.864 25.864 0 0 1 0 42.244v-.132A38.685 38.685 0 0 1 3.145 27.67 53.319 53.319 0 0 1 11.4 14.079a45.238 45.238 0 0 1 11.7-10.1A26.913 26.913 0 0 1 36.569 0h.04a10.327 10.327 0 0 1 8.37 4.063 12.13 12.13 0 0 1 2.063 10.3 6.518 6.518 0 0 1-2.442 3.664 5.233 5.233 0 0 1-2.88 1.077h-.012c-2.01 0-2.287-1.1-2.3-1.146 1.57-5.916 1.534-10-.108-12.136a4.527 4.527 0 0 0-3.81-1.673h-.02c-4.072.011-9.432 3.125-14.338 8.33A50.15 50.15 0 0 0 9.423 33.7a34.034 34.034 0 0 0-1.286 11.274 13.6 13.6 0 0 0 2.463 7.312 7.6 7.6 0 0 0 6.225 3.055h.023A24.012 24.012 0 0 0 26.8 52.7a47.532 47.532 0 0 0 10.546-7.064 54 54 0 0 0 9.141-10.3A40.313 40.313 0 0 0 52.22 23l3.523-13.26c0-.006.3-.568 1.432-.57h.009a1.947 1.947 0 0 1 1.634.737c.951 1.235.845 4.084-.315 8.467l-4.393 16.57c2.092-2.19 6.215-5.864 10.307-5.875h.008a2.338 2.338 0 0 1 1.929.905c.587.763 1.11 2.341.266 5.53v.011c0 .015-.01.039-.02.075l-.005.021-.03.114-.092.348-.016.06-.048.181-.01.039c-.352 1.324-1.175 4.424-1.946 7.341-.685 2.585-.676 4.357.025 5.268a1.9 1.9 0 0 0 1.6.7h.011c1.213 0 3.176-1.131 4.828-3.65a9.3 9.3 0 0 1-.168-1.706 12.944 12.944 0 0 1 .437-3.338 21.81 21.81 0 0 1 2.133-5.278 15.017 15.017 0 0 1 2.981-3.725 11.219 11.219 0 0 1 7.51-2.946h.021a7.188 7.188 0 0 1 4.89 1.857 8.334 8.334 0 0 1 2.579 4.952l.135.117a3.166 3.166 0 0 0 2.108.766h.007a7.461 7.461 0 0 0 5.5-2.39 13.073 13.073 0 0 1 10.01-5.365h.032c2.339 0 4.159.692 5.124 1.948a4.28 4.28 0 0 1 .573 3.839 3.97 3.97 0 0 1-3.774 3.2h-.008a2.008 2.008 0 0 1-1.84-.916c1.459-2.469 1.329-3.753.964-4.4a2 2 0 0 0-1.8-.9h-.009c-2.483.005-5.83 3.154-7.425 9.162-.761 2.87-.462 5.383.841 7.077a5.586 5.586 0 0 0 4.634 2.072h.021a11.563 11.563 0 0 0 5.247-1.427 14.482 14.482 0 0 0 4.618-3.785 9.72 9.72 0 0 1 .054-2.162 14.506 14.506 0 0 1 .347-1.816 21.761 21.761 0 0 1 2.131-5.277 15.1 15.1 0 0 1 2.983-3.725 11.216 11.216 0 0 1 7.511-2.945h.019a7.193 7.193 0 0 1 4.897 1.859 8.308 8.308 0 0 1 2.58 4.951c.027.157.05.326.07.517a3.136 3.136 0 0 0 1.509.368h.005a7.446 7.446 0 0 0 4.88-1.794 11.444 11.444 0 0 0 3.392-5.932l5.135-19.377c0-.006.318-.567 1.448-.57h.009a1.945 1.945 0 0 1 1.633.737c.953 1.238.848 4.087-.312 8.467l-6.727 25.353c-.685 2.582-.677 4.353.024 5.265a1.91 1.91 0 0 0 1.606.7h.008c1.5 0 3.913-1.6 5.668-5.09a12.233 12.233 0 0 1 .438-3.607 21.858 21.858 0 0 1 2.133-5.277 15.049 15.049 0 0 1 2.984-3.724 11.224 11.224 0 0 1 7.517-2.945h.022a7.238 7.238 0 0 1 5.477 2.458c.984-1.69 2.037-2.479 3.314-2.481h.008a1.91 1.91 0 0 1 1.548.555l-3.734 14.075c-.682 2.583-.672 4.355.03 5.266a1.9 1.9 0 0 0 1.6.7h.008c1.625 0 3.542-1.352 5.4-3.794 2.244-2.954 4.349-7.341 6.256-13.04l-4.39.01.855-3.234 4.556-.012c.177-.6 1.285-4.674 3.118-11.475l.1-.385c0-.006.317-.568 1.452-.57h.009a1.943 1.943 0 0 1 1.631.736c.952 1.24.844 4.088-.32 8.467l-.84 3.222 8.746-.022v.007a3.994 3.994 0 0 1-1.066 1.613 6.8 6.8 0 0 1-4.872 1.629l-3.674.009-2.888 10.84c-.727 2.749-.209 4.2.354 4.927a2.694 2.694 0 0 0 2.193 1.04h.009a6.848 6.848 0 0 0 2.2-.408 11.329 11.329 0 0 0 4.684-3.689 14.719 14.719 0 0 1-.066-2.372 13.29 13.29 0 0 1 .381-2.2 21.771 21.771 0 0 1 2.129-5.274 15.04 15.04 0 0 1 2.984-3.724 11.219 11.219 0 0 1 7.51-2.946h.021a7.287 7.287 0 0 1 5.883 2.954.051.051 0 0 1 .007.012.093.093 0 0 0 .014.017 8.574 8.574 0 0 1 1.438 3.275c1.57-.309 3.56-1 4.112-2.57a.276.276 0 0 1 0-.1v-.031a4.115 4.115 0 0 1-2.9-4.688c.351-1.79 1.416-2.861 2.848-2.865h.005c1.555 0 2.766 1.807 3.083 4.6l5.423-.014h.027c2.843 0 4.358.938 4.631 2.868.27 1.993-.661 3.8-1.739 5.89l-.006.012a25.867 25.867 0 0 0-2.21 5.292c-.685 2.586-.677 4.358.023 5.267a1.913 1.913 0 0 0 1.609.7h.009a5.2 5.2 0 0 0 2.721-.948 12.821 12.821 0 0 0 3.2-3.146 18.313 18.313 0 0 0 3-6.367l.139-.464.208-.689v-.006l.02-.067c.3-.976.629-2.082.986-3.12 1.384-4.014 2.86-5.806 4.784-5.81h.008a1.933 1.933 0 0 1 1.551.554l-3.731 14.137c-.531 2.006-.579 3.2-.152 3.754a1.137 1.137 0 0 0 .969.389h.006c1.1 0 2.835-1.19 4.517-3.1a17.148 17.148 0 0 0 3.715-6.553c1.715-6.453 3.449-9.209 5.8-9.215h.005a1.933 1.933 0 0 1 1.565.553l-7.3 27.5a17.2 17.2 0 0 1-5.493 8.994 12.263 12.263 0 0 1-7.663 2.955zM83.659 31.567h-.007a5.965 5.965 0 0 0-4.178 2.474 19.3 19.3 0 0 0-3.646 8.518c-.6 2.98-.362 5.4.651 6.636a2.348 2.348 0 0 0 1.9.9h.009a5.959 5.959 0 0 0 4.18-2.473 19.294 19.294 0 0 0 3.638-8.522c.6-2.979.364-5.4-.649-6.637a2.35 2.35 0 0 0-1.898-.896zm129.388-.052a5.958 5.958 0 0 0-4.178 2.473 19.3 19.3 0 0 0-3.645 8.518c-.6 2.983-.361 5.4.652 6.638a2.349 2.349 0 0 0 1.9.9h.007a5.96 5.96 0 0 0 4.179-2.474 19.308 19.308 0 0 0 3.642-8.518c.6-2.979.365-5.4-.65-6.636a2.345 2.345 0 0 0-1.895-.9zm-83.908-.062a5.954 5.954 0 0 0-4.178 2.473 19.287 19.287 0 0 0-3.645 8.518c-.6 2.981-.363 5.4.649 6.636a2.35 2.35 0 0 0 1.9.9h.008a5.957 5.957 0 0 0 4.18-2.472 19.3 19.3 0 0 0 3.641-8.518c.6-2.978.364-5.4-.65-6.637a2.346 2.346 0 0 0-1.894-.9zm39.24-.1a5.955 5.955 0 0 0-4.18 2.473 19.324 19.324 0 0 0-3.643 8.518c-.6 2.977-.369 5.395.645 6.635a2.344 2.344 0 0 0 1.895.9h.005a5.971 5.971 0 0 0 4.184-2.473 19.276 19.276 0 0 0 3.646-8.518c.6-2.977.364-5.4-.651-6.636a2.346 2.346 0 0 0-1.893-.9z" class="cls-1" data-name="Clip 2" transform="translate(0 .999)"/>
        </clipPath>
    </defs>
    <g id="Atoms_Brand_Chocolatory" data-name="Atoms/Brand/Chocolatory" transform="translate(0 -.999)">
        <g id="Cocolatory_Script" data-name="Cocolatory Script">
            <g id="Group_3" data-name="Group 3">
                <path id="Clip_2-2" d="M244.057 68.7h-.047c-2.335 0-4.151-.693-5.113-1.945a4.3 4.3 0 0 1-.574-3.843 4.4 4.4 0 0 1 1.594-2.461 3.72 3.72 0 0 1 2.178-.738h.008a2.014 2.014 0 0 1 1.844.922c-1.46 2.469-1.329 3.753-.963 4.4a1.993 1.993 0 0 0 1.791.9h.005c2.488-.007 5.842-3.155 7.437-9.157l2.65-10.094c-2.107 2.2-6.256 5.886-10.347 5.9h-.008a2.323 2.323 0 0 1-1.741-.712 4.327 4.327 0 0 1-.847-3.266c-2.733 2.606-5.669 3.986-8.491 3.992h-.019a5.589 5.589 0 0 1-4.562-2.12 5.711 5.711 0 0 1-.892-4.994 27.442 27.442 0 0 1 2.861-6.34v-.006l.005-.01c1.054-1.873 1.964-3.49 1.84-4.663-.169-1.717-1.395-1.887-4.362-1.887h-.225a2.235 2.235 0 0 1-.02.351c-.607 3.974-5.043 5.3-7.634 5.737v.014a21.768 21.768 0 0 1-.546 2.657 17.729 17.729 0 0 1-4.986 8.463 10.8 10.8 0 0 1-7.187 2.776h-.017a7.56 7.56 0 0 1-6.765-4.2 16.554 16.554 0 0 1-4.4 3.142 12.136 12.136 0 0 1-5.194 1.064h-.017a6.164 6.164 0 0 1-4.415-1.754 6.487 6.487 0 0 1-1.786-4.726 20.329 20.329 0 0 1-5.456 4.922 10.757 10.757 0 0 1-5.411 1.6h-.021a4.978 4.978 0 0 1-4.482-2.39 10.779 10.779 0 0 1-6.763 2.419h-.019a7.538 7.538 0 0 1-4.042-1.163 7.916 7.916 0 0 1-2.837-3.2 16.4 16.4 0 0 1-4.767 3.3 11.613 11.613 0 0 1-4.549 1.1h-.016a4.607 4.607 0 0 1-3.824-1.69 6.254 6.254 0 0 1-.722-5.427l2.331-8.771a8.847 8.847 0 0 1-6.161 2.794h-.028a8.2 8.2 0 0 1-1.6-.151 13.118 13.118 0 0 1-.283 1.362 18.333 18.333 0 0 1-5 9 10.869 10.869 0 0 1-7.4 2.942h-.019a7.5 7.5 0 0 1-4.064-1.184 7.936 7.936 0 0 1-2.838-3.246 21.272 21.272 0 0 1-12.353 4.5h-.035c-3.3 0-6.014-1.168-7.645-3.288-1.68-2.198-2.108-5.257-1.215-8.631.18-.708.41-1.365.567-1.8a7.9 7.9 0 0 1-2.9.6h-.01a8.2 8.2 0 0 1-2.113-.264l-.152-.042a13.706 13.706 0 0 1-.307 1.516 18.355 18.355 0 0 1-5 9 10.851 10.851 0 0 1-7.387 2.942h-.022a7.574 7.574 0 0 1-6.739-4.091 14.532 14.532 0 0 1-4.243 3.1 10.1 10.1 0 0 1-4.2 1.03h-.017a4.606 4.606 0 0 1-3.822-1.689 6.248 6.248 0 0 1-.72-5.424c.749-2.814 1.532-5.768 1.841-6.937l.122-.458v-.014c.025-.094.04-.147.04-.151.533-2.005.581-3.2.15-3.758a1.131 1.131 0 0 0-.966-.389h-.005c-2.133.006-5.782 4.157-7.252 5.941l-.986 3.711c-1.71 6.454-3.445 9.21-5.8 9.213h-.01a1.575 1.575 0 0 1-1.493-.77l3.846-14.478A52.267 52.267 0 0 1 32.351 54.1c-5.848 3.759-12 5.836-17.329 5.85h-.054a16.111 16.111 0 0 1-6.209-1.15 12.549 12.549 0 0 1-4.708-3.391 15.393 15.393 0 0 1-2.992-5.547A25.864 25.864 0 0 1 0 42.244v-.132A38.685 38.685 0 0 1 3.145 27.67 53.319 53.319 0 0 1 11.4 14.079a45.238 45.238 0 0 1 11.7-10.1A26.913 26.913 0 0 1 36.569 0h.04a10.327 10.327 0 0 1 8.37 4.063 12.13 12.13 0 0 1 2.063 10.3 6.518 6.518 0 0 1-2.442 3.664 5.233 5.233 0 0 1-2.88 1.077h-.012c-2.01 0-2.287-1.1-2.3-1.146 1.57-5.916 1.534-10-.108-12.136a4.527 4.527 0 0 0-3.81-1.673h-.02c-4.072.011-9.432 3.125-14.338 8.33A50.15 50.15 0 0 0 9.423 33.7a34.034 34.034 0 0 0-1.286 11.274 13.6 13.6 0 0 0 2.463 7.312 7.6 7.6 0 0 0 6.225 3.055h.023A24.012 24.012 0 0 0 26.8 52.7a47.532 47.532 0 0 0 10.546-7.064 54 54 0 0 0 9.141-10.3A40.313 40.313 0 0 0 52.22 23l3.523-13.26c0-.006.3-.568 1.432-.57h.009a1.947 1.947 0 0 1 1.634.737c.951 1.235.845 4.084-.315 8.467l-4.393 16.57c2.092-2.19 6.215-5.864 10.307-5.875h.008a2.338 2.338 0 0 1 1.929.905c.587.763 1.11 2.341.266 5.53v.011c0 .015-.01.039-.02.075l-.005.021-.03.114-.092.348-.016.06-.048.181-.01.039c-.352 1.324-1.175 4.424-1.946 7.341-.685 2.585-.676 4.357.025 5.268a1.9 1.9 0 0 0 1.6.7h.011c1.213 0 3.176-1.131 4.828-3.65a9.3 9.3 0 0 1-.168-1.706 12.944 12.944 0 0 1 .437-3.338 21.81 21.81 0 0 1 2.133-5.278 15.017 15.017 0 0 1 2.981-3.725 11.219 11.219 0 0 1 7.51-2.946h.021a7.188 7.188 0 0 1 4.89 1.857 8.334 8.334 0 0 1 2.579 4.952l.135.117a3.166 3.166 0 0 0 2.108.766h.007a7.461 7.461 0 0 0 5.5-2.39 13.073 13.073 0 0 1 10.01-5.365h.032c2.339 0 4.159.692 5.124 1.948a4.28 4.28 0 0 1 .573 3.839 3.97 3.97 0 0 1-3.774 3.2h-.008a2.008 2.008 0 0 1-1.84-.916c1.459-2.469 1.329-3.753.964-4.4a2 2 0 0 0-1.8-.9h-.009c-2.483.005-5.83 3.154-7.425 9.162-.761 2.87-.462 5.383.841 7.077a5.586 5.586 0 0 0 4.634 2.072h.021a11.563 11.563 0 0 0 5.247-1.427 14.482 14.482 0 0 0 4.618-3.785 9.72 9.72 0 0 1 .054-2.162 14.506 14.506 0 0 1 .347-1.816 21.761 21.761 0 0 1 2.131-5.277 15.1 15.1 0 0 1 2.983-3.725 11.216 11.216 0 0 1 7.511-2.945h.019a7.193 7.193 0 0 1 4.897 1.859 8.308 8.308 0 0 1 2.58 4.951c.027.157.05.326.07.517a3.136 3.136 0 0 0 1.509.368h.005a7.446 7.446 0 0 0 4.88-1.794 11.444 11.444 0 0 0 3.392-5.932l5.135-19.377c0-.006.318-.567 1.448-.57h.009a1.945 1.945 0 0 1 1.633.737c.953 1.238.848 4.087-.312 8.467l-6.727 25.353c-.685 2.582-.677 4.353.024 5.265a1.91 1.91 0 0 0 1.606.7h.008c1.5 0 3.913-1.6 5.668-5.09a12.233 12.233 0 0 1 .438-3.607 21.858 21.858 0 0 1 2.133-5.277 15.049 15.049 0 0 1 2.984-3.724 11.224 11.224 0 0 1 7.517-2.945h.022a7.238 7.238 0 0 1 5.477 2.458c.984-1.69 2.037-2.479 3.314-2.481h.008a1.91 1.91 0 0 1 1.548.555l-3.734 14.075c-.682 2.583-.672 4.355.03 5.266a1.9 1.9 0 0 0 1.6.7h.008c1.625 0 3.542-1.352 5.4-3.794 2.244-2.954 4.349-7.341 6.256-13.04l-4.39.01.855-3.234 4.556-.012c.177-.6 1.285-4.674 3.118-11.475l.1-.385c0-.006.317-.568 1.452-.57h.009a1.943 1.943 0 0 1 1.631.736c.952 1.24.844 4.088-.32 8.467l-.84 3.222 8.746-.022v.007a3.994 3.994 0 0 1-1.066 1.613 6.8 6.8 0 0 1-4.872 1.629l-3.674.009-2.888 10.84c-.727 2.749-.209 4.2.354 4.927a2.694 2.694 0 0 0 2.193 1.04h.009a6.848 6.848 0 0 0 2.2-.408 11.329 11.329 0 0 0 4.684-3.689 14.719 14.719 0 0 1-.066-2.372 13.29 13.29 0 0 1 .381-2.2 21.771 21.771 0 0 1 2.129-5.274 15.04 15.04 0 0 1 2.984-3.724 11.219 11.219 0 0 1 7.51-2.946h.021a7.287 7.287 0 0 1 5.883 2.954.051.051 0 0 1 .007.012.093.093 0 0 0 .014.017 8.574 8.574 0 0 1 1.438 3.275c1.57-.309 3.56-1 4.112-2.57a.276.276 0 0 1 0-.1v-.031a4.115 4.115 0 0 1-2.9-4.688c.351-1.79 1.416-2.861 2.848-2.865h.005c1.555 0 2.766 1.807 3.083 4.6l5.423-.014h.027c2.843 0 4.358.938 4.631 2.868.27 1.993-.661 3.8-1.739 5.89l-.006.012a25.867 25.867 0 0 0-2.21 5.292c-.685 2.586-.677 4.358.023 5.267a1.913 1.913 0 0 0 1.609.7h.009a5.2 5.2 0 0 0 2.721-.948 12.821 12.821 0 0 0 3.2-3.146 18.313 18.313 0 0 0 3-6.367l.139-.464.208-.689v-.006l.02-.067c.3-.976.629-2.082.986-3.12 1.384-4.014 2.86-5.806 4.784-5.81h.008a1.933 1.933 0 0 1 1.551.554l-3.731 14.137c-.531 2.006-.579 3.2-.152 3.754a1.137 1.137 0 0 0 .969.389h.006c1.1 0 2.835-1.19 4.517-3.1a17.148 17.148 0 0 0 3.715-6.553c1.715-6.453 3.449-9.209 5.8-9.215h.005a1.933 1.933 0 0 1 1.565.553l-7.3 27.5a17.2 17.2 0 0 1-5.493 8.994 12.263 12.263 0 0 1-7.663 2.955zM83.659 31.567h-.007a5.965 5.965 0 0 0-4.178 2.474 19.3 19.3 0 0 0-3.646 8.518c-.6 2.98-.362 5.4.651 6.636a2.348 2.348 0 0 0 1.9.9h.009a5.959 5.959 0 0 0 4.18-2.473 19.294 19.294 0 0 0 3.638-8.522c.6-2.979.364-5.4-.649-6.637a2.35 2.35 0 0 0-1.898-.896zm129.388-.052a5.958 5.958 0 0 0-4.178 2.473 19.3 19.3 0 0 0-3.645 8.518c-.6 2.983-.361 5.4.652 6.638a2.349 2.349 0 0 0 1.9.9h.007a5.96 5.96 0 0 0 4.179-2.474 19.308 19.308 0 0 0 3.642-8.518c.6-2.979.365-5.4-.65-6.636a2.345 2.345 0 0 0-1.895-.9zm-83.908-.062a5.954 5.954 0 0 0-4.178 2.473 19.287 19.287 0 0 0-3.645 8.518c-.6 2.981-.363 5.4.649 6.636a2.35 2.35 0 0 0 1.9.9h.008a5.957 5.957 0 0 0 4.18-2.472 19.3 19.3 0 0 0 3.641-8.518c.6-2.978.364-5.4-.65-6.637a2.346 2.346 0 0 0-1.894-.9zm39.24-.1a5.955 5.955 0 0 0-4.18 2.473 19.324 19.324 0 0 0-3.643 8.518c-.6 2.977-.369 5.395.645 6.635a2.344 2.344 0 0 0 1.895.9h.005a5.971 5.971 0 0 0 4.184-2.473 19.276 19.276 0 0 0 3.646-8.518c.6-2.977.364-5.4-.651-6.636a2.346 2.346 0 0 0-1.893-.9z" class="cls-1" data-name="Clip 2" transform="translate(0 .999)"/>
            </g>
        </g>
    </g>
</svg>
