<svg xmlns="http://www.w3.org/2000/svg" id="Atoms_Brand_Finger_Outline" width="337" height="66" data-name="Atoms/Brand/Finger Outline" viewBox="0 0 337 66">
    <defs>
        <style>
            .cls-1,.cls-2,.cls-4{fill:none}.cls-1,.cls-2{stroke:#861723;stroke-miterlimit:10}.cls-2{stroke-linecap:square}.cls-3{stroke:none}
        </style>
    </defs>
    <g id="Group" transform="translate(6 6)">
        <g id="Rectangle_1" class="cls-1" data-name="Rectangle 1">
            <path d="M0 0h325v54H0z" class="cls-3"/>
            <path d="M.5.5h324v53H.5z" class="cls-4"/>
        </g>
        <g id="Rectangle_1-2" class="cls-1" data-name="Rectangle 1">
            <path d="M0 0h311v40H0z" class="cls-3" transform="translate(7 7)"/>
            <path d="M.5.5h310v39H.5z" class="cls-4" transform="translate(7 7)"/>
        </g>
        <path id="Line_3" d="M1 0l6.5 6.5" class="cls-2" data-name="Line 3" transform="translate(0 1)"/>
        <path id="Line_3_Copy" d="M1 0l6.5-6.5" class="cls-2" data-name="Line 3 Copy" transform="translate(0 53)"/>
        <path id="Line_3_Copy_2" d="M0 0l-6.5 6.5" class="cls-2" data-name="Line 3 Copy 2" transform="translate(324 1)"/>
        <path id="Line_3_Copy_3" d="M0 0l6.441 6.441" class="cls-2" data-name="Line 3 Copy 3" transform="rotate(-180 162 26.5)"/>
    </g>
    <g id="Rectangle_1-3" class="cls-1" data-name="Rectangle 1">
        <path d="M0 0h337v66H0z" class="cls-3"/>
        <path d="M.5.5h336v65H.5z" class="cls-4"/>
    </g>
</svg>
