<svg xmlns="http://www.w3.org/2000/svg" viewBox="0 0 795.95 517.69"><defs><style>.cls-1{fill:#c32126;}.cls-2,.cls-3{fill:#fff;}.cls-3{fill-rule:evenodd;}</style></defs><title>Asset 2</title><g id="Layer_2" data-name="Layer 2"><g id="BG"><rect class="cls-1" width="795.95" height="517.69"/></g><g id="Logo"><path class="cls-1" d="M363.13,275.08c-48.86,0-85.1-18.83-92.31-48-3.12-12.61-.53-26.45,7.5-40l.52-.87-.66-.77a28.55,28.55,0,0,1-6.67-15.62c-.06-.56-.1-1.1-.13-1.65a34.73,34.73,0,0,1,6.9-22.36,28.53,28.53,0,0,1,16.55-11.25,17.81,17.81,0,0,1,3.87-.4,25.67,25.67,0,0,1,13.66,4.24l1.11.72.79-1c2.74-3.63,5.73-5.32,9.4-5.32a21.77,21.77,0,0,1,4.85.71l.1,0a17.21,17.21,0,0,0,3.52.55,3.35,3.35,0,0,0,2.85-1.33.58.58,0,0,1,.45-.22h.1a.6.6,0,0,1,.45.39c.32,1,.89,3.19.95,3.44l.38,1.45,1.51-.48.2-.09A211.36,211.36,0,0,1,377,124a207,207,0,0,1,49.7-6.25c48.86,0,85.09,18.83,92.31,48,4.75,19.21-3.57,40.5-23.44,59.94-20.07,19.63-49.44,35-82.71,43.21a207,207,0,0,1-49.69,6.25Z"/><g id="KK_Logo" data-name="KK Logo"><path class="cls-2" d="M520.35,165.34c-10.09-40.76-74.44-59.9-143.72-42.75a213.6,213.6,0,0,0-38.22,13.35l-.1.05h0s-.62-2.36-1-3.51a2,2,0,0,0-3.47-.64c-.8,1-1.77,1-4.93.28l-.11,0c-4.07-.92-10.08-2.28-15.69,5.14-5.7-3.73-12.8-5.31-18.6-4A30,30,0,0,0,277.14,145h0A36.09,36.09,0,0,0,270,168.26c0,.58.07,1.14.13,1.73a29.94,29.94,0,0,0,7,16.39c-8,13.51-11,27.63-7.66,41.08,10.09,40.76,74.44,59.9,143.72,42.75S530.44,206.11,520.35,165.34ZM272.64,171c-.07-.53-.12-1.07-.16-1.61a34.6,34.6,0,0,1,6.37-22.17,28,28,0,0,1,16-11.37c5.78-1.38,13.26.45,18.72,4.47l.08.06.06-.1c5-8.24,10.39-7.05,14.71-6.17,2.87.59,5.29,1.08,6.93-1.12a50.69,50.69,0,0,1,2.27,9.38,35.84,35.84,0,0,1,.33,4.41,25.37,25.37,0,0,1-1.93,10.37,21.08,21.08,0,0,1-6.36,8.31,24.14,24.14,0,0,1-9.08,4.47c-10.6,2.69-19.44,5.86-25.65,9.62a28.54,28.54,0,0,0-10.8,10.9A27.91,27.91,0,0,1,272.64,171Zm139.92,96.7c-67,16.57-129.14-1.92-138.89-41.32-3-12.21-.65-25,6.05-37.32.18.17.36.34.55.5h0a20.93,20.93,0,0,0,3.22,2.34c-5.41,11-7.18,22.32-4.5,33.16,3.13,12.63,11.9,23,24.58,30.63l.14-79.21.64-.24a134.86,134.86,0,0,1,15.94-4.66l0,27.75,24.9-59.93q-2.91,1.29-5.71,2.66c-.14-1.13-.32-2.28-.55-3.46a205.83,205.83,0,0,1,38.33-13.56c67-16.57,129.14,1.93,138.89,41.32S479.51,251.15,412.56,267.73Z"/><path class="cls-2" d="M323.92,145.13l7.25-1.56a.81.81,0,0,0,.55-.85l-.05-1.09c0-.4-.28-.7-.61-.59l-7.2,2.35a.66.66,0,0,0-.4.67l0,.66C323.49,145,323.69,145.18,323.92,145.13Z"/><path class="cls-2" d="M321.08,159.13l1-.29a1.1,1.1,0,0,0,.75-1l-.74-13.8a.76.76,0,0,0-.85-.74l-1,.22a1,1,0,0,0-.64,1.05l.77,13.9C320.38,158.93,320.7,159.24,321.08,159.13Z"/><path class="cls-2" d="M282.62,175.29l.3,6c18.74-21,42.91-9.66,49.44-24.41C320.9,169.37,305.5,158.81,282.62,175.29Z"/><path class="cls-2" d="M314.29,151.49l.54-.13.27,5.77c.09,2,1.34,3.48,3.19,2.93l1-.29a.83.83,0,0,0,.51-.85l0-1c0-.38-.27-.62-.57-.54l-.15,0c-.87.24-1.39-.33-1.43-1.36l-.25-5.29,1.61-.41a.74.74,0,0,0,.48-.77l0-.95c0-.35-.26-.59-.54-.52l-1.61.38-.16-3.52c0-.5-.36-.84-.76-.75l-1.07.23a1,1,0,0,0-.66,1.07l.16,3.56-.55.13a.78.78,0,0,0-.5.79l.05,1C313.75,151.33,314,151.56,314.29,151.49Z"/><path class="cls-2" d="M283.33,170.59l1.09-.4a1.52,1.52,0,0,0,1-1.48l-.67-11.45s5.66,9.69,5.84,10a1.24,1.24,0,0,0,1.53.54l1.64-.52a1.45,1.45,0,0,0,.91-1.42L294,152l18.7-4.23a.8.8,0,0,0,.52-.83l-.05-1c0-.39-.28-.65-.58-.59l-20.65,4.45a1.31,1.31,0,0,0-.91,1.36l.62,10.82s-5.33-9.44-5.71-10.06a1.55,1.55,0,0,0-1.7-.64l-1.83.45a1.39,1.39,0,0,0-1,1.42l.85,16.61A.87.87,0,0,0,283.33,170.59Z"/><path class="cls-2" d="M309.67,150a4.76,4.76,0,0,0-3.92,4.87,2.61,2.61,0,0,0,2.72,2.64l2.23.1c.57,0,1.07.11,1.1.69.05,1-.73,1.5-1.59,1.76a1.54,1.54,0,0,1-1.95-.68c-.15-.4-.93-.28-1.3-.18l-.73.25a.71.71,0,0,0-.43.72v.2c.08,1.75,2,3,4.51,2.22a5.18,5.18,0,0,0,3.95-5.08,2.52,2.52,0,0,0-2.48-2.7l-2.32-.14c-.54,0-1.07-.12-1.09-.7-.05-.9.59-1.37,1.4-1.58s1.54,0,1.8.64c.12.3.34.31.64.23l1.14-.3a.64.64,0,0,0,.39-.64C313.67,150.55,312,149.4,309.67,150Z"/><path class="cls-2" d="M331.81,152.32l-1.35.35a.87.87,0,0,0-.57.51,2.78,2.78,0,0,1-1.78,1.7c-1.24.32-2.16-.64-2.28-1.91l5.92-1.47a1,1,0,0,0,.73-1.15c-.12-2.81-1.6-5.33-4.77-4.64s-4.62,3.89-4.49,6.9c.14,3.2,2.1,5.52,5,4.73a5.7,5.7,0,0,0,4-4.49C332.29,152.57,332.12,152.25,331.81,152.32Zm-4-4.3a1.81,1.81,0,0,1,2.21,1.7l-4.27,1A2.89,2.89,0,0,1,327.81,148Z"/><path class="cls-2" d="M304.53,159.66l-1.45.44a1,1,0,0,0-.6.61,2.92,2.92,0,0,1-1.9,1.85c-1.33.41-2.31-.68-2.45-2.14l6.32-1.87c.57-.16.8-.64.76-1.33-.15-3.23-1.77-6.09-5.15-5.23s-4.92,4.61-4.74,8.09c.18,3.7,2.31,6.31,5.41,5.31a6.4,6.4,0,0,0,4.28-5.13C305,159.93,304.87,159.56,304.53,159.66Zm-4.34-5a1.93,1.93,0,0,1,2.38,1.9L298,157.84A3.33,3.33,0,0,1,300.19,154.66Z"/><path class="cls-2" d="M414,122.7,414,173.86l18.64-51.26A172.33,172.33,0,0,0,414,122.7Z"/><path class="cls-2" d="M414.45,263.91a194.79,194.79,0,0,0,32.17-11.44l-32.18-45.29Z"/><path class="cls-2" d="M378,128.21q-3.81.94-7.53,2l-38.92,82.94,41.22,57.08a190.8,190.8,0,0,0,23.85-2.51l.23-143.26C390.66,125.4,384.36,126.64,378,128.21ZM353.3,179.09c3.31-3.22,7.6-3,9.79.29s1.35,8.63-1.86,11.81-7.6,3-9.77-.24S350,182.3,353.3,179.09Zm-3.38,57.29v-34.5l14.36-8.75,0,39.84Zm43.54-13.93a12.4,12.4,0,0,1-14.85,6.71c-3-1-7.86-4-7.83-11.56l.13-21.65-4.4,1.09.11-5.09,14.76-20.59,4.39-1.09L385.62,182l9-2.23-.09,10.37-9.09,2.27L385.34,210c0,3.85.13,5.72,1.09,6.56,2.8,2.51,6.95-2.45,8.32-3.58A20.72,20.72,0,0,1,393.46,222.45Z"/><path class="cls-2" d="M320.26,263.42a129.5,129.5,0,0,0,31.29,6.39l-31-42Z"/><path class="cls-2" d="M452.12,196.67c-.49,3,1.29,4.13,2.43,4.38a3.3,3.3,0,0,0,3.84-3.12l.29-9.39C457,189.81,452.57,193.85,452.12,196.67Z"/><path class="cls-2" d="M510.81,167.71a43.23,43.23,0,0,0-6.47-14.22l-.08,10.12-9.09,2.28L495,183.53c0,3.85.13,5.71,1.09,6.56,2.8,2.51,7-2.45,8.32-3.58a20.6,20.6,0,0,1-1.29,9.48,12.42,12.42,0,0,1-14.85,6.71c-3-1-7.86-4-7.83-11.57l.13-21.64-4.4,1.09.11-5.1,14.84-20.7,4.3-1.06c-10.51-9.08-25.4-15.52-43-18.81l-27.05,65.75,37.82,53.07C497.6,223.17,517.33,194,510.81,167.71ZM476.59,201.6c-2.45,6.85-8.37,9.26-14.35,5.65-5.55,5.62-11.64,6.57-16.55,5-4.48-1.42-8.14-9.14-6.66-15.52a18.94,18.94,0,0,1,6.23-10.59c3.81-3.52,11-7.25,12.65-10.41,1.33-2.43.39-5.22-2.28-4.58-4.4,1.05-11.76,9.22-15.15,13l.08-12.78c2.32-3.78,7.28-10.09,13.33-12.25,8.64-3.08,18.56,1.6,18.84,11.06v23.07c0,2.4,3.57,1.67,5.26-.47A30,30,0,0,1,476.59,201.6Z"/><path class="cls-2" d="M495.47,143.73l-.15,11.76v.23l9-2.23-.14-.2A52.22,52.22,0,0,0,495.47,143.73Z"/></g><g id="Registered_Marks" data-name="Registered Marks"><path class="cls-3" d="M508.71,134.23a1,1,0,0,0-1-1h-2.26v4.06h.63v-1.82h.65l1.18,1.82h.81l-1.22-1.85A1.08,1.08,0,0,0,508.71,134.23Zm-2.61.58v-1h1.41s.52,0,.52.48c0,0,.17.56-.51.56Zm.8-3.36a3.77,3.77,0,1,0,3.77,3.77A3.77,3.77,0,0,0,506.9,131.45Zm0,6.84a3.07,3.07,0,1,1,3.07-3.07A3.06,3.06,0,0,1,506.9,138.29Z"/><path class="cls-3" d="M342.94,128.44a1,1,0,0,0-1-1H339.7v4.06h.63v-1.81H341l1.19,1.81h.8l-1.21-1.85A1.07,1.07,0,0,0,342.94,128.44Zm-2.61.57v-1h1.41s.52,0,.52.48c0,0,.17.56-.5.56Zm.8-3.35a3.77,3.77,0,1,0,3.77,3.76A3.76,3.76,0,0,0,341.13,125.66Zm0,6.83a3.07,3.07,0,1,1,3.07-3.07A3.06,3.06,0,0,1,341.13,132.49Z"/><path class="cls-2" d="M695.37,351.44a7.88,7.88,0,0,0-7.71,8,7.73,7.73,0,0,0,7.91,7.74,7.87,7.87,0,0,0,7.68-8A7.71,7.71,0,0,0,695.37,351.44Zm.16,14.47a6.5,6.5,0,0,1-6.59-6.47,6.57,6.57,0,0,1,6.45-6.72,6.48,6.48,0,0,1,6.6,6.45A6.65,6.65,0,0,1,695.53,365.91Z"/><path class="cls-2" d="M698.91,357.22c0-1.83-1-2.33-3.1-2.28l-3.4.06.09,8.85,1.37,0,0-4.12,1.53,0,2.2,4.06,1.52,0-2.39-4.17A2.07,2.07,0,0,0,698.91,357.22Zm-5.11,1.24,0-2.19,2.09,0c1.18,0,1.68.13,1.7,1s-.71,1.1-1.71,1.14Z"/></g><path id="Chocolatory" class="cls-2" d="M676.77,316.68c-4.65,0-8.47,4.91-12.42,19.62-2.65,9.83-12.72,20.54-17.61,20.54-2.47,0-3.65-1.7-1.74-8.84l8-30.13s-.87-1.19-3.33-1.19c-3.81,0-7.06,3.25-10.23,12.37-.93,2.68-1.78,5.51-2.62,8.27-1.3,4.25-2.46,8.85-6.73,14.55-4.68,6.25-9.36,8.7-12.65,8.7-4,0-6-3.4-3.47-12.74,2.76-10.34,9.48-16.49,8.49-23.85-.54-3.93-3.54-6.15-9.92-6.15H601c-.65-5.79-3.16-9.83-6.57-9.83-3,0-5.3,2.16-6.08,6.09a8.77,8.77,0,0,0,6.15,10,.82.82,0,0,0,0,.27c-1.11,3.11-4.89,4.71-8.78,5.46a18.35,18.35,0,0,0-3.06-7l0-.07A15.44,15.44,0,0,0,570,316.45c-11.42,0-22.34,8.17-27,25.41a28.31,28.31,0,0,0-.83,4.68,31.17,31.17,0,0,0,.13,5.06,24,24,0,0,1-10,7.84,14.41,14.41,0,0,1-4.7.86c-3.92,0-7.91-3.39-5.42-12.73l6.22-23.11h7.84c10.82,0,12.68-6.9,12.68-6.9H530.3l1.83-6.84c4-14.72,1.89-19.64-2.76-19.64-2.48,0-3.11,1.2-3.11,1.2s-6.27,23.09-6.93,25.28h-9.72l-1.84,6.9h9.36c-8.86,26.29-18.58,35.84-24.94,35.84-3.93,0-6-3.39-3.47-12.73l8-30s-.86-1.19-3.31-1.19-4.87,1.5-7.08,5.28a15.46,15.46,0,0,0-11.72-5.28c-11.45,0-22.35,8.17-27,25.41a26,26,0,0,0-1,7.7c-3.85,7.61-9.06,10.82-12.12,10.82-3.93,0-6-3.39-3.46-12.73l14.49-54.05c3.93-14.7,1.88-19.64-2.79-19.64-2.46,0-3.09,1.21-3.09,1.21l-11.06,41.3c-3.17,11.79-10.32,16.44-17.69,16.44a6.69,6.69,0,0,1-3.22-.79c0-.37-.09-.73-.15-1.11-1.39-8.82-7.94-14.56-15.94-14.56-11.42,0-22.34,8.17-27,25.41a30.59,30.59,0,0,0-.75,3.87,20.93,20.93,0,0,0-.13,4.62c-5.35,6.7-13.95,11.06-21.07,11.06-9.83,0-14.7-8.24-11.67-19.55,3.5-13,10.73-19.5,15.89-19.5,3,0,7.13,2.26,1.76,11.31a4.28,4.28,0,0,0,3.94,2c2.95,0,6.74-1.89,8.07-6.8,2-7.36-2.87-12.38-12.19-12.38-7.29,0-15.42,3.73-21.38,11.39a15.94,15.94,0,0,1-11.75,5.07,6.79,6.79,0,0,1-4.51-1.65l-.29-.25c-1.4-8.82-7.95-14.56-15.95-14.56-11.42,0-22.34,8.17-27,25.41a27.52,27.52,0,0,0-.95,7.13,19.81,19.81,0,0,0,.34,3.63c-3.56,5.41-7.71,7.76-10.32,7.76-3.92,0-5.95-3.39-3.45-12.73,2.33-8.73,4.68-17.46,4.68-17.46,2.49-9.34-.24-13.74-4.67-13.74-8.76,0-17.64,7.92-22,12.48l9.46-35.33c3.93-14.7,1.89-19.64-2.78-19.64-2.46,0-3.06,1.21-3.06,1.21l-7.59,28.27c-9.66,36.84-50.07,68.79-75.62,68.79-14.73,0-23.62-16.72-15.72-46.2,9.82-36.68,38.52-62.89,55.72-62.89,8.84,0,14.26,7.36,8.32,29.48,0,0,.51,2.45,4.92,2.45,3.19,0,9.41-2.72,11.38-10.09,3.69-13.75-5.06-30.68-22.26-30.68-39.3,0-78.23,50.07-78.23,89.9,0,24.58,12.29,37.85,32,37.85,22.52,0,52.41-17.27,71.14-47.29l-8.28,30.85a3.37,3.37,0,0,0,3.2,1.66c4.66,0,8.48-4.91,12.42-19.62l2.13-7.92c3.38-4.08,11-12.63,15.49-12.63,2.46,0,3.65,1.72,1.74,8.85,0,0-2.18,8.13-4.33,16.12s1.19,15.2,9.69,15.2c5.51,0,12.38-2.89,18-8.77a16.2,16.2,0,0,0,14.4,8.77c11.42,0,21.81-8.17,26.48-25.41a28,28,0,0,0,.67-3.22l.32.09a17.63,17.63,0,0,0,4.53.57,16.88,16.88,0,0,0,6.19-1.27c-.45,1.23-.87,2.49-1.22,3.83-4,14.74,4.17,25.44,18.91,25.44,7.73,0,18.29-3.13,26.37-9.52a16.24,16.24,0,0,0,14.74,9.49c11.44,0,21.84-8.17,26.51-25.41a26.16,26.16,0,0,0,.61-2.89,17.78,17.78,0,0,0,3.47.33c4.33,0,9-1.8,13.16-5.93l-5,18.7c-2.13,8,1.18,15.2,9.69,15.2,5.69,0,13.56-3.08,19.89-9.34a16.24,16.24,0,0,0,14.69,9.34,22.85,22.85,0,0,0,14.44-5.13,10.63,10.63,0,0,0,9.59,5.13c7.45,0,15.61-4.41,23.21-13.86,0,8.85,6.15,13.86,13.23,13.86,8.54,0,14.19-3,20.5-8.92a16.15,16.15,0,0,0,14.44,9c11.08,0,21.17-7.7,26-23.9a45.84,45.84,0,0,0,1.18-5.69c7.47-1.24,15.15-4.7,16.31-12.2a3.82,3.82,0,0,0,0-.75c6.68,0,9.43.31,9.78,4.06.51,4.91-7.35,13.19-10.11,23.48-2.14,8,3.15,15.2,11.64,15.2,5.86,0,12.07-2.73,18.13-8.47-.35,5.73,2.05,8.5,5.52,8.5,8.83,0,17.74-8,22.1-12.52l-5.71,21.51c-3.49,13-10.75,19.49-15.91,19.49-2.95,0-7.12-2.27-1.75-11.3a4.27,4.27,0,0,0-3.94-2c-3,0-6.75,1.9-8.07,6.81-2,7.37,2.87,12.38,12.2,12.38,10.81,0,23.54-8.18,28.17-25.4l15.73-58.61S679.24,316.68,676.77,316.68ZM299.69,337.89c-3.52,17.19-11.73,23.4-16.74,23.4s-7.44-6.12-5.4-16.09c3.52-17.19,11.74-23.4,16.74-23.4S301.73,327.93,299.69,337.89Zm97,0c-3.52,17.19-11.73,23.4-16.74,23.4s-7.43-6.12-5.4-16.09c3.52-17.19,11.74-23.4,16.74-23.4S398.75,327.93,396.71,337.89Zm83.7,0c-3.52,17.19-11.75,23.4-16.76,23.4s-7.43-6.12-5.39-16.09C461.79,328,470,321.8,475,321.8S482.45,327.93,480.41,337.89Zm95.28.59c-3.53,17.19-11.74,23.4-16.75,23.4s-7.43-6.12-5.4-16.09c3.52-17.19,11.74-23.4,16.74-23.4S577.72,328.52,575.69,338.48Z"/><g id="Lines"><path class="cls-2" d="M259.81,233.51h-144v4.18H261.33C260.78,236.31,260.25,234.93,259.81,233.51Z"/><path class="cls-2" d="M503.45,233.51c-1.47,1.42-3,2.81-4.52,4.18H680.12v-4.18Z"/></g></g></g></svg>